<?xml version="1.0" encoding="UTF-8" standalone="no"?>
<!DOCTYPE svg PUBLIC "-//W3C//DTD SVG 1.1//EN" "http://www.w3.org/Graphics/SVG/1.1/DTD/svg11.dtd">
<!-- Generated by Microsoft Visio, SVG Export install-portal-raw-3.svg Page-1 -->
<svg xmlns="http://www.w3.org/2000/svg" xmlns:xlink="http://www.w3.org/1999/xlink" xmlns:ev="http://www.w3.org/2001/xml-events"
		xmlns:v="http://schemas.microsoft.com/visio/2003/SVGExtensions/" width="11.149in" height="5.67301in"
		viewBox="0 0 802.731 408.457" xml:space="preserve" color-interpolation-filters="sRGB" class="st17">
	<v:documentProperties v:langID="1033" v:viewMarkup="false">
		<v:userDefs>
			<v:ud v:nameU="msvNoAutoConnect" v:val="VT0(1):26"/>
		</v:userDefs>
	</v:documentProperties>

	<style type="text/css">
	<![CDATA[
		.st1 {fill:#f8cbad;stroke:none;stroke-linecap:round;stroke-linejoin:round;stroke-width:0.75}
		.st2 {stroke:#2f528f;stroke-linecap:round;stroke-linejoin:round;stroke-width:1.00451}
		.st3 {fill:#ffffff;stroke:none;stroke-linecap:round;stroke-linejoin:round;stroke-width:0.75}
		.st4 {stroke:#000000;stroke-linecap:round;stroke-linejoin:round;stroke-width:0.749637}
		.st5 {stroke:none;stroke-linecap:round;stroke-linejoin:round;stroke-width:0.75}
		.st6 {fill:#000000;font-family:Calibri;font-size:1.16833em}
		.st7 {font-size:1em}
		.st8 {fill:#4472c4;fill-opacity:0.44;stroke:none;stroke-linecap:round;stroke-linejoin:round;stroke-width:0.75}
		.st9 {fill:#4472c4;fill-opacity:0.51;stroke:none;stroke-linecap:round;stroke-linejoin:round;stroke-width:0.75}
		.st10 {fill:#ff0000;fill-opacity:0.51;stroke:none;stroke-linecap:round;stroke-linejoin:round;stroke-width:0.75}
		.st11 {fill:#000000;font-family:Calibri;font-size:1.32809em}
		.st12 {stroke:#000000;stroke-linecap:round;stroke-linejoin:round;stroke-width:1.82479}
		.st13 {marker-end:url(#mrkr4-132);stroke:#000000;stroke-linecap:butt;stroke-width:5}
		.st14 {fill:#000000;fill-opacity:1;stroke:#000000;stroke-opacity:1;stroke-width:0.66489361702128}
		.st15 {stroke:#000000;stroke-linecap:butt;stroke-width:4.5}
		.st16 {stroke:#000000;stroke-width:5}
		.st17 {fill:none;fill-rule:evenodd;font-size:12px;overflow:visible;stroke-linecap:square;stroke-miterlimit:3}
	]]>
	</style>

	<defs id="Markers">
		<g id="lend4">
			<path d="M 2 1 L 0 0 L 2 -1 L 2 1 " style="stroke:none"/>
		</g>
		<marker id="mrkr4-132" class="st14" v:arrowType="4" v:arrowSize="2" v:setback="3.008" refX="-3.008" orient="auto"
				markerUnits="strokeWidth" overflow="visible">
			<use xlink:href="#lend4" transform="scale(-1.504,-1.504) "/>
		</marker>
	</defs>
	<g v:mID="0" v:index="1" v:groupContext="foregroundPage">
		<title>Page-1</title>
		<v:pageProperties v:drawingScale="1" v:pageScale="1" v:drawingUnits="19" v:shadowOffsetX="9" v:shadowOffsetY="-9"/>
		<v:layer v:name="Callout" v:index="0"/>
		<v:layer v:name="Connector" v:index="1"/>
		<g id="shape1010-1" v:mID="1010" v:groupContext="shape" transform="translate(19.6992,-18.8421)">
			<title>Sheet.1010</title>
			<path d="M0 106.49 L0 408.46 L119.8 408.46 L119.8 106.49 L0 106.49 L0 106.49 Z" class="st1"/>
		</g>
		<g id="shape1011-3" v:mID="1011" v:groupContext="shape" transform="translate(19.6992,-18.8421)">
			<title>Sheet.1011</title>
			<path d="M0 106.49 L119.8 106.49 L119.8 408.46 L0 408.46 L0 106.49" class="st2"/>
		</g>
		<g id="shape1012-6" v:mID="1012" v:groupContext="shape" transform="translate(35.9067,-243.415)">
			<title>Sheet.1012</title>
			<path d="M0 384.25 L0 408.46 L72.75 408.46 L72.75 384.25 L0 384.25 L0 384.25 Z" class="st3"/>
		</g>
		<g id="shape1013-8" v:mID="1013" v:groupContext="shape" transform="translate(35.9067,-243.415)">
			<title>Sheet.1013</title>
			<path d="M0 384.25 L72.75 384.25 L72.75 408.46 L0 408.46 L0 384.25" class="st4"/>
		</g>
		<g id="shape1014-11" v:mID="1014" v:groupContext="shape" transform="translate(51.2823,-245.509)">
			<title>Sheet.1014</title>
			<desc>Jupyter</desc>
			<v:textBlock v:margins="rect(0,0,0,0)"/>
			<v:textRect cx="26.0367" cy="400.043" width="52.08" height="16.8275"/>
			<path d="M52.07 391.63 L0 391.63 L0 408.46 L52.07 408.46 L52.07 391.63" class="st5"/>
			<text x="4.98" y="404.25" class="st6" v:langID="1033"><v:paragraph v:horizAlign="1"/><v:tabList/>Jupyter</text>		</g>
		<g id="shape1015-15" v:mID="1015" v:groupContext="shape" transform="translate(35.9067,-198)">
			<title>Sheet.1015</title>
			<path d="M0 384.25 L0 408.46 L72.75 408.46 L72.75 384.25 L0 384.25 L0 384.25 Z" class="st3"/>
		</g>
		<g id="shape1016-17" v:mID="1016" v:groupContext="shape" transform="translate(35.9067,-198)">
			<title>Sheet.1016</title>
			<path d="M0 384.25 L72.75 384.25 L72.75 408.46 L0 408.46 L0 384.25" class="st4"/>
		</g>
		<g id="shape1017-20" v:mID="1017" v:groupContext="shape" transform="translate(49.906,-200.097)">
			<title>Sheet.1017</title>
			<desc>Conda</desc>
			<v:textBlock v:margins="rect(0,0,0,0)"/>
			<v:textRect cx="22.7065" cy="400.043" width="45.42" height="16.8275"/>
			<path d="M45.41 391.63 L0 391.63 L0 408.46 L45.41 408.46 L45.41 391.63" class="st5"/>
			<text x="4.55" y="404.25" class="st6" v:langID="1033"><v:paragraph v:horizAlign="1"/><v:tabList/>Conda</text>		</g>
		<g id="shape1018-24" v:mID="1018" v:groupContext="shape" transform="translate(35.9067,-90.0811)">
			<title>Sheet.1018</title>
			<path d="M0 336.54 L0 408.46 L72.75 408.46 L72.75 336.54 L0 336.54 L0 336.54 Z" class="st3"/>
		</g>
		<g id="shape1019-26" v:mID="1019" v:groupContext="shape" transform="translate(35.9067,-90)">
			<title>Sheet.1019</title>
			<path d="M0 336.54 L72.75 336.54 L72.75 408.46 L0 408.46 L0 336.54" class="st4"/>
		</g>
		<g id="shape1020-29" v:mID="1020" v:groupContext="shape" transform="translate(46.6112,-109.643)">
			<title>Sheet.1020</title>
			<desc>VS, VSC, Azure CLI</desc>
			<v:textBlock v:margins="rect(0,0,0,0)"/>
			<v:textRect cx="26.5127" cy="393.777" width="53.03" height="29.3593"/>
			<path d="M53.03 379.1 L0 379.1 L0 408.46 L53.03 408.46 L53.03 379.1" class="st5"/>
			<text x="3.3" y="389.57" class="st6" v:langID="1033"><v:paragraph v:horizAlign="1"/><v:tabList/>VS, VSC,<v:newlineChar/><tspan
						x="0.04" dy="1.2em" class="st7">Azure CLI</tspan></text>		</g>
		<g id="shape1056-34" v:mID="1056" v:groupContext="shape" transform="translate(203.607,-18.8421)">
			<title>Sheet.1056</title>
			<path d="M111.94 150.55 L0 150.55 L0 408.46 L111.94 408.46 L111.94 150.55 Z" class="st8"/>
		</g>
		<g id="shape1057-36" v:mID="1057" v:groupContext="shape" transform="translate(203.607,-18.8421)">
			<title>Sheet.1057</title>
			<path d="M0 150.55 L111.94 150.55 L111.94 408.46 L0 408.46 L0 150.55" class="st2"/>
		</g>
		<g id="shape1058-39" v:mID="1058" v:groupContext="shape" transform="translate(231.271,-193.192)">
			<title>Sheet.1058</title>
			<path d="M0 350.34 L0 408.46 L60.03 408.46 L60.03 350.34 L0 350.34 L0 350.34 Z" class="st3"/>
		</g>
		<g id="shape1059-41" v:mID="1059" v:groupContext="shape" transform="translate(231.271,-193.192)">
			<title>Sheet.1059</title>
			<path d="M0 350.34 L60.03 350.34 L60.03 408.46 L0 408.46 L0 350.34" class="st4"/>
		</g>
		<g id="shape1060-44" v:mID="1060" v:groupContext="shape" transform="translate(241.025,-212.417)">
			<title>Sheet.1060</title>
			<desc>Python</desc>
			<v:textBlock v:margins="rect(0,0,0,0)"/>
			<v:textRect cx="25.0604" cy="400.043" width="50.13" height="16.8275"/>
			<path d="M50.12 391.63 L0 391.63 L0 408.46 L50.12 408.46 L50.12 391.63" class="st5"/>
			<text x="4.86" y="404.25" class="st6" v:langID="1033"><v:paragraph v:horizAlign="1"/><v:tabList/>Python</text>		</g>
		<g id="shape1061-48" v:mID="1061" v:groupContext="shape" transform="translate(232.832,-95.1726)">
			<title>Sheet.1061</title>
			<path d="M0 350.34 L0 408.46 L60.03 408.46 L60.03 350.34 L0 350.34 L0 350.34 Z" class="st3"/>
		</g>
		<g id="shape1062-50" v:mID="1062" v:groupContext="shape" transform="translate(232.832,-95.1726)">
			<title>Sheet.1062</title>
			<path d="M0 350.34 L60.03 350.34 L60.03 408.46 L0 408.46 L0 350.34" class="st4"/>
		</g>
		<g id="shape1063-53" v:mID="1063" v:groupContext="shape" transform="translate(245.561,-114.387)">
			<title>Sheet.1063</title>
			<desc>C#, F#</desc>
			<v:textBlock v:margins="rect(0,0,0,0)"/>
			<v:textRect cx="21.6909" cy="400.043" width="43.39" height="16.8275"/>
			<path d="M43.38 391.63 L0 391.63 L0 408.46 L43.38 408.46 L43.38 391.63" class="st5"/>
			<text x="4.42" y="404.25" class="st6" v:langID="1033"><v:paragraph v:horizAlign="1"/><v:tabList/>C#, F#</text>		</g>
		<g id="shape1047-57" v:mID="1047" v:groupContext="shape" transform="translate(394.307,-18.8421)">
			<title>Sheet.1047</title>
			<path d="M111.94 150.55 L0 150.55 L0 408.46 L111.94 408.46 L111.94 150.55 Z" class="st9"/>
		</g>
		<g id="shape1048-59" v:mID="1048" v:groupContext="shape" transform="translate(394.307,-18.8421)">
			<title>Sheet.1048</title>
			<path d="M0 150.55 L111.94 150.55 L111.94 408.46 L0 408.46 L0 150.55" class="st2"/>
		</g>
		<g id="shape1049-62" v:mID="1049" v:groupContext="shape" transform="translate(416.069,-172.462)">
			<title>Sheet.1049</title>
			<path d="M0 336.54 L0 408.46 L59.91 408.46 L59.91 336.54 L0 336.54 L0 336.54 Z" class="st3"/>
		</g>
		<g id="shape1050-64" v:mID="1050" v:groupContext="shape" transform="translate(416.069,-172.462)">
			<title>Sheet.1050</title>
			<path d="M0 336.54 L59.91 336.54 L59.91 408.46 L0 408.46 L0 336.54" class="st4"/>
		</g>
		<g id="shape1051-67" v:mID="1051" v:groupContext="shape" transform="translate(427.067,-199.172)">
			<title>Sheet.1051</title>
			<desc>Q# Qiskit Cirq</desc>
			<v:textBlock v:margins="rect(0,0,0,0)"/>
			<v:textRect cx="20.4666" cy="400.043" width="40.94" height="16.8275"/>
			<path d="M40.93 391.63 L0 391.63 L0 408.46 L40.93 408.46 L40.93 391.63" class="st5"/>
			<text x="12.26" y="387.43" class="st6" v:langID="1033"><v:paragraph v:horizAlign="1"/><v:tabList/>Q#<v:newlineChar/><tspan
						x="4.26" dy="1.2em" class="st7">Qiskit<v:newlineChar/></tspan><tspan x="8.99" dy="1.2em" class="st7">Cirq</tspan></text>		</g>
		<g id="shape1053-73" v:mID="1053" v:groupContext="shape" transform="translate(416.069,-98.3181)">
			<title>Sheet.1053</title>
			<path d="M0 354.72 L0 408.46 L59.91 408.46 L59.91 354.72 L0 354.72 L0 354.72 Z" class="st3"/>
		</g>
		<g id="shape1054-75" v:mID="1054" v:groupContext="shape" transform="translate(416.069,-98.3181)">
			<title>Sheet.1054</title>
			<path d="M0 354.72 L59.91 354.72 L59.91 408.46 L0 408.46 L0 354.72" class="st4"/>
		</g>
		<g id="shape1055-78" v:mID="1055" v:groupContext="shape" transform="translate(432,-117.586)">
			<title>Sheet.1055</title>
			<desc>Q#</desc>
			<v:textBlock v:margins="rect(0,0,0,0)"/>
			<v:textRect cx="11.2638" cy="400.043" width="22.53" height="16.8275"/>
			<path d="M22.53 391.63 L0 391.63 L0 408.46 L22.53 408.46 L22.53 391.63" class="st5"/>
			<text x="3.06" y="404.25" class="st6" v:langID="1033"><v:paragraph v:horizAlign="1"/><v:tabList/>Q#</text>		</g>
		<g id="shape1025-82" v:mID="1025" v:groupContext="shape" transform="translate(572.625,-18)">
			<title>Sheet.1025</title>
			<path d="M185.23 106.49 L0 106.49 L0 408.46 L185.23 408.46 L185.23 106.49 Z" class="st10"/>
		</g>
		<g id="shape1026-84" v:mID="1026" v:groupContext="shape" transform="translate(573.023,-18.8421)">
			<title>Sheet.1026</title>
			<path d="M0 106.49 L185.23 106.49 L185.23 408.46 L0 408.46 L0 106.49" class="st2"/>
		</g>
		<g id="shape1027-87" v:mID="1027" v:groupContext="shape" transform="translate(600.257,-192.779)">
			<title>Sheet.1027</title>
			<path d="M0 367.24 L0 408.46 L142.63 408.46 L142.63 367.24 L0 367.24 L0 367.24 Z" class="st3"/>
		</g>
		<g id="shape1028-89" v:mID="1028" v:groupContext="shape" transform="translate(600.257,-192.779)">
			<title>Sheet.1028</title>
			<path d="M0 367.24 L142.63 367.24 L142.63 408.46 L0 408.46 L0 367.24" class="st4"/>
		</g>
		<g id="shape1029-92" v:mID="1029" v:groupContext="shape" transform="translate(606.317,-192.779)">
			<title>Sheet.1029</title>
			<desc>Quantum hardware</desc>
			<v:textBlock v:margins="rect(0,0,0,0)"/>
			<v:textRect cx="64.6864" cy="387.847" width="129.38" height="41.2209"/>
			<path d="M129.37 367.24 L0 367.24 L0 408.46 L129.37 408.46 L129.37 367.24" class="st5"/>
			<text x="8.56" y="392.05" class="st6" v:langID="1033"><v:paragraph v:horizAlign="1"/><v:tabList/>Quantum hardware  </text>		</g>
		<g id="shape1032-96" v:mID="1032" v:groupContext="shape" transform="translate(599.777,-108)">
			<title>Sheet.1032</title>
			<path d="M0 354.72 L0 408.46 L142.51 408.46 L142.51 354.72 L0 354.72 L0 354.72 Z" class="st3"/>
		</g>
		<g id="shape1033-98" v:mID="1033" v:groupContext="shape" transform="translate(599.777,-108)">
			<title>Sheet.1033</title>
			<path d="M0 354.72 L142.51 354.72 L142.51 408.46 L0 408.46 L0 354.72" class="st4"/>
		</g>
		<g id="shape1034-101" v:mID="1034" v:groupContext="shape" transform="translate(615.058,-118.985)">
			<title>Sheet.1034</title>
			<desc>Quantum simulators</desc>
			<v:textBlock v:margins="rect(0,0,0,0)"/>
			<v:textRect cx="55.9716" cy="392.576" width="111.95" height="31.7621"/>
			<path d="M111.94 376.69 L0 376.69 L0 408.46 L111.94 408.46 L111.94 376.69" class="st5"/>
			<text x="28.9" y="388.37" class="st6" v:langID="1033"><v:paragraph v:horizAlign="1"/><v:tabList/>Quantum <tspan
						x="26.14" dy="1.2em" class="st7">simulators</tspan></text>		</g>
		<g id="shape1038-106" v:mID="1038" v:groupContext="shape" transform="translate(59.2967,-350.436)">
			<title>Sheet.1038</title>
			<desc>IDE</desc>
			<v:textBlock v:margins="rect(0,0,0,0)"/>
			<v:textRect cx="14.4952" cy="398.893" width="29" height="19.1281"/>
			<path d="M28.99 389.33 L0 389.33 L0 408.46 L28.99 408.46 L28.99 389.33" class="st5"/>
			<text x="3.69" y="403.67" class="st11" v:langID="1033"><v:paragraph v:horizAlign="1"/><v:tabList/>IDE</text>		</g>
		<g id="shape1039-110" v:mID="1039" v:groupContext="shape" transform="translate(217.675,-358.872)">
			<title>Sheet.1039</title>
			<desc>Classical language</desc>
			<v:textBlock v:margins="rect(0,0,0,0)"/>
			<v:textRect cx="35.1625" cy="398.893" width="70.33" height="19.1281"/>
			<path d="M70.32 389.33 L0 389.33 L0 408.46 L70.32 408.46 L70.32 389.33" class="st5"/>
			<text x="8.19" y="394.11" class="st11" v:langID="1033"><v:paragraph v:horizAlign="1"/><v:tabList/>Classical<v:newlineChar/><tspan
						x="5.86" dy="1.2em" class="st7">language </tspan> </text>		</g>
		<g id="shape1041-115" v:mID="1041" v:groupContext="shape" transform="translate(406.931,-358.251)">
			<title>Sheet.1041</title>
			<desc>Quantum language</desc>
			<v:textBlock v:margins="rect(0,0,0,0)"/>
			<v:textRect cx="39.5344" cy="398.893" width="79.07" height="19.1281"/>
			<path d="M79.07 389.33 L0 389.33 L0 408.46 L79.07 408.46 L79.07 389.33" class="st5"/>
			<text x="8.76" y="394.11" class="st11" v:langID="1033"><v:paragraph v:horizAlign="1"/><v:tabList/>Quantum<v:newlineChar/><tspan
						x="10.23" dy="1.2em" class="st7">language </tspan> </text>		</g>
		<g id="shape1045-120" v:mID="1045" v:groupContext="shape" transform="translate(631.868,-350.436)">
			<title>Sheet.1045</title>
			<desc>Targets</desc>
			<v:textBlock v:margins="rect(0,0,0,0)"/>
			<v:textRect cx="26.0661" cy="398.893" width="52.14" height="19.1281"/>
			<path d="M52.13 389.33 L0 389.33 L0 408.46 L52.13 408.46 L52.13 389.33" class="st5"/>
			<text x="2.09" y="403.67" class="st11" v:langID="1033"><v:paragraph v:horizAlign="1"/><v:tabList/>Targets</text>		</g>
		<g id="shape1046-124" v:mID="1046" v:groupContext="shape" transform="translate(18.9124,-341.718)">
			<title>Sheet.1046</title>
			<path d="M0 408.46 L737.09 408.46" class="st12"/>
		</g>
		<g id="shape1001-127" v:mID="1001" v:groupContext="shape" v:layerMember="1" transform="translate(118.25,-207)">
			<title>Dynamic connector.1001</title>
			<path d="M0 399.46 L97.96 399.46" class="st13"/>
		</g>
		<g id="shape1002-133" v:mID="1002" v:groupContext="shape" v:layerMember="1" transform="translate(108,-121.5)">
			<title>Dynamic connector.1002</title>
			<path d="M0 399.46 L109.71 399.46" class="st13"/>
		</g>
		<g id="shape1003-138" v:mID="1003" v:groupContext="shape" v:layerMember="1" transform="translate(293.333,-121.5)">
			<title>Dynamic connector.1003</title>
			<path d="M0 399.46 L107.63 399.46" class="st13"/>
		</g>
		<g id="shape1006-143" v:mID="1006" v:groupContext="shape" v:layerMember="1" transform="translate(291.333,-207)">
			<title>Dynamic connector.1006</title>
			<path d="M0 399.46 L109.13 399.46" class="st13"/>
		</g>
		<g id="shape1007-148" v:mID="1007" v:groupContext="shape" v:layerMember="1" transform="translate(485.25,-163)">
			<title>Dynamic connector.1007</title>
			<path d="M0 399.46 L91.08 399.46" class="st13"/>
		</g>
		<g id="shape1035-153" v:mID="1035" v:groupContext="shape" transform="translate(601.698,-264.112)">
			<title>Sheet.1035</title>
			<path d="M0 367.24 L0 408.46 L142.63 408.46 L142.63 367.24 L0 367.24 L0 367.24 Z" class="st3"/>
		</g>
		<g id="shape1036-155" v:mID="1036" v:groupContext="shape" transform="translate(601.698,-264.779)">
			<title>Sheet.1036</title>
			<path d="M0 367.24 L142.63 367.24 L142.63 408.46 L0 408.46 L0 367.24" class="st4"/>
		</g>
		<g id="shape1037-158" v:mID="1037" v:groupContext="shape" transform="translate(608.324,-273.287)">
			<title>Sheet.1037</title>
			<desc>Optimization solvers</desc>
			<v:textBlock v:margins="rect(0,0,0,0)"/>
			<v:textRect cx="64.6864" cy="396.354" width="129.38" height="24.2053"/>
			<path d="M129.37 384.25 L0 384.25 L0 408.46 L129.37 408.46 L129.37 384.25" class="st5"/>
			<text x="6.26" y="400.56" class="st6" v:langID="1033"><v:paragraph v:horizAlign="1"/><v:tabList/>Optimization solvers</text>		</g>
		<g id="shape1064-162" v:mID="1064" v:groupContext="shape" v:layerMember="1" transform="translate(258.3,-279)">
			<title>Dynamic connector.1064</title>
			<path d="M0 399.46 L327.03 399.46" class="st13"/>
		</g>
		<g id="shape1065-167" v:mID="1065" v:groupContext="shape" transform="translate(261,-252)">
			<title>Sheet.1065</title>
			<path d="M0 408.46 L0 406.7 L0 374.48 L0 372.46" class="st15"/>
		</g>
		<g id="shape10-170" v:mID="10" v:groupContext="shape" v:layerMember="0" transform="translate(892.207,187.957) rotate(90)">
			<title>Reverse.10</title>
			<v:userDefs>
				<v:ud v:nameU="visVersion" v:prompt="" v:val="VT0(15):26"/>
				<v:ud v:nameU="msvStructureType" v:prompt="" v:val="VT4(Callout)"/>
				<v:ud v:nameU="msvSDTargetIntersection" v:prompt=""/>
				<v:ud v:nameU="msvSDCalloutNoHighlight" v:prompt="" v:val="VT0(0):5"/>
				<v:ud v:nameU="msvShapeCategories" v:prompt="" v:val="VT0(0):26"/>
				<v:ud v:nameU="Side" v:prompt="" v:val="VT0(4):26"/>
				<v:ud v:nameU="LeaderEnd" v:prompt="" v:val="VT7(PNT(0.25,-0.25)):40"/>
				<v:ud v:nameU="WHBoxIntersection" v:prompt="" v:val="VT7(PNT(0.40384615384615,0)):40"/>
				<v:ud v:nameU="IsEndInterior" v:prompt="" v:val="VT0(0):5"/>
				<v:ud v:nameU="Extension" v:prompt="" v:val="VT0(0.0625):0"/>
				<v:ud v:nameU="Inset" v:prompt="" v:val="VT0(0.0625):0"/>
				<v:ud v:nameU="Embellishment" v:prompt="" v:val="VT0(2):26"/>
				<v:ud v:nameU="MultiFormat" v:prompt="" v:val="VT0(0):26"/>
				<v:ud v:nameU="BackFillColor" v:prompt="" v:val="VT5(#96afcf)"/>
				<v:ud v:nameU="BackLineColor" v:prompt="" v:val="VT5(#1f477d)"/>
				<v:ud v:nameU="DarkerColor" v:prompt="" v:val="VT5(#000000)"/>
				<v:ud v:nameU="BackCharColor" v:prompt="" v:val="VT5(#000000)"/>
				<v:ud v:nameU="visMasterStencil" v:prompt="" v:val="VT4(SDCALL_U.vssx)"/>
				<v:ud v:nameU="msvSDTargetIntersection" v:prompt="" v:val="VT7(PNT(1.1956422668457,-0.43123480760652)):40"/>
				<v:ud v:nameU="LeaderEnd" v:prompt="" v:val="VT7(PNT(1.1956422668457,-0.43123480760652)):40"/>
				<v:ud v:nameU="WHBoxIntersection" v:prompt="" v:val="VT7(PNT(0.81117842611339,0)):40"/>
			</v:userDefs>
			<path d="M0 412.96 L0 408.46 L96.75 408.46 L96.75 412.96" class="st16"/>
		</g>
		<g id="shape1000-173" v:mID="1000" v:groupContext="shape" v:layerMember="0"
				transform="translate(183.293,284.707) rotate(-90)">
			<title>Reverse.1000</title>
			<v:userDefs>
				<v:ud v:nameU="visVersion" v:prompt="" v:val="VT0(15):26"/>
				<v:ud v:nameU="msvStructureType" v:prompt="" v:val="VT4(Callout)"/>
				<v:ud v:nameU="msvSDTargetIntersection" v:prompt=""/>
				<v:ud v:nameU="msvSDCalloutNoHighlight" v:prompt="" v:val="VT0(0):5"/>
				<v:ud v:nameU="msvShapeCategories" v:prompt="" v:val="VT0(0):26"/>
				<v:ud v:nameU="Side" v:prompt="" v:val="VT0(4):26"/>
				<v:ud v:nameU="LeaderEnd" v:prompt="" v:val="VT7(PNT(0.25,-0.25)):40"/>
				<v:ud v:nameU="WHBoxIntersection" v:prompt="" v:val="VT7(PNT(0.40384615384615,0)):40"/>
				<v:ud v:nameU="IsEndInterior" v:prompt="" v:val="VT0(0):5"/>
				<v:ud v:nameU="Extension" v:prompt="" v:val="VT0(0.0625):0"/>
				<v:ud v:nameU="Inset" v:prompt="" v:val="VT0(0.0625):0"/>
				<v:ud v:nameU="Embellishment" v:prompt="" v:val="VT0(2):26"/>
				<v:ud v:nameU="MultiFormat" v:prompt="" v:val="VT0(0):26"/>
				<v:ud v:nameU="BackFillColor" v:prompt="" v:val="VT5(#96afcf)"/>
				<v:ud v:nameU="BackLineColor" v:prompt="" v:val="VT5(#1f477d)"/>
				<v:ud v:nameU="DarkerColor" v:prompt="" v:val="VT5(#000000)"/>
				<v:ud v:nameU="BackCharColor" v:prompt="" v:val="VT5(#000000)"/>
				<v:ud v:nameU="visMasterStencil" v:prompt="" v:val="VT4(SDCALL_U.vssx)"/>
				<v:ud v:nameU="msvSDTargetIntersection" v:prompt="" v:val="VT7(PNT(0.63993905742651,-1.0262037027176)):40"/>
				<v:ud v:nameU="LeaderEnd" v:prompt="" v:val="VT7(PNT(0.63993905742651,-1.0262037027176)):40"/>
				<v:ud v:nameU="WHBoxIntersection" v:prompt="" v:val="VT7(PNT(0.66765499144224,0)):40"/>
			</v:userDefs>
			<path d="M0 412.96 L0 408.46 L96.75 408.46 L96.75 412.96" class="st16"/>
		</g>
		<g id="shape1066-176" v:mID="1066" v:groupContext="shape" v:layerMember="0"
				transform="translate(525.457,149.707) rotate(90)">
			<title>Reverse.1066</title>
			<v:userDefs>
				<v:ud v:nameU="visVersion" v:prompt="" v:val="VT0(15):26"/>
				<v:ud v:nameU="msvStructureType" v:prompt="" v:val="VT4(Callout)"/>
				<v:ud v:nameU="msvSDTargetIntersection" v:prompt=""/>
				<v:ud v:nameU="msvSDCalloutNoHighlight" v:prompt="" v:val="VT0(0):5"/>
				<v:ud v:nameU="msvShapeCategories" v:prompt="" v:val="VT0(0):26"/>
				<v:ud v:nameU="Side" v:prompt="" v:val="VT0(4):26"/>
				<v:ud v:nameU="LeaderEnd" v:prompt="" v:val="VT7(PNT(0.25,-0.25)):40"/>
				<v:ud v:nameU="WHBoxIntersection" v:prompt="" v:val="VT7(PNT(0.40384615384615,0)):40"/>
				<v:ud v:nameU="IsEndInterior" v:prompt="" v:val="VT0(0):5"/>
				<v:ud v:nameU="Extension" v:prompt="" v:val="VT0(0.0625):0"/>
				<v:ud v:nameU="Inset" v:prompt="" v:val="VT0(0.0625):0"/>
				<v:ud v:nameU="Embellishment" v:prompt="" v:val="VT0(2):26"/>
				<v:ud v:nameU="MultiFormat" v:prompt="" v:val="VT0(0):26"/>
				<v:ud v:nameU="BackFillColor" v:prompt="" v:val="VT5(#96afcf)"/>
				<v:ud v:nameU="BackLineColor" v:prompt="" v:val="VT5(#1f477d)"/>
				<v:ud v:nameU="DarkerColor" v:prompt="" v:val="VT5(#000000)"/>
				<v:ud v:nameU="BackCharColor" v:prompt="" v:val="VT5(#000000)"/>
				<v:ud v:nameU="visMasterStencil" v:prompt="" v:val="VT4(SDCALL_U.vssx)"/>
				<v:ud v:nameU="msvSDTargetIntersection" v:prompt="" v:val="VT7(PNT(1.235061045019,-0.51944983537783)):40"/>
				<v:ud v:nameU="LeaderEnd" v:prompt="" v:val="VT7(PNT(1.235061045019,-0.51944983537783)):40"/>
				<v:ud v:nameU="WHBoxIntersection" v:prompt="" v:val="VT7(PNT(0.89820191951856,0)):40"/>
			</v:userDefs>
			<path d="M0 412.96 L0 408.46 L114.75 408.46 L114.75 412.96" class="st16"/>
		</g>
	</g>
</svg>
