<?xml version="1.0" encoding="utf-8"?>
<!-- Generator: Adobe Illustrator 27.0.1, SVG Export Plug-In . SVG Version: 6.00 Build 0)  -->
<svg version="1.1" xmlns="http://www.w3.org/2000/svg" xmlns:xlink="http://www.w3.org/1999/xlink" x="0px" y="0px"
	 viewBox="0 0 790 234" enable-background="new 0 0 790 234" xml:space="preserve">
<symbol  id="PIPELINE" viewBox="-32 -12.266 64 24.531">
	<linearGradient id="SVGID_1_" gradientUnits="userSpaceOnUse" x1="0" y1="-12.2655" x2="1.502093e-15" y2="12.2655">
		<stop  offset="0" style="stop-color:#1B89B2"/>
		<stop  offset="1" style="stop-color:#51C8E8"/>
	</linearGradient>
	<path fill="url(#SVGID_1_)" d="M26.096,12.266h-51.448v0h0C-29.08,12.265-32,6.878-32,0s2.92-12.265,6.648-12.265h0v0h51.448
		C29.356-12.266,32-6.363,32,0S29.356,12.266,26.096,12.266z"/>
	<g>
		
			<linearGradient id="SVGID_00000166665139910786645440000017915148929936452763_" gradientUnits="userSpaceOnUse" x1="-31.461" y1="-6.1136" x2="-19.2338" y2="6.1136">
			<stop  offset="0" style="stop-color:#B3B4B4"/>
			<stop  offset="1" style="stop-color:#4F4F4F"/>
		</linearGradient>
		<ellipse fill="url(#SVGID_00000166665139910786645440000017915148929936452763_)" cx="-25.347" cy="0" rx="5.575" ry="10.879"/>
	</g>
</symbol>
<g id="Shapes">
	<rect fill="#FFFFFF" width="790" height="234"/>
	<g id="Wrench_tool_x28_s_x29_">
	</g>
	<g id="user2">
	</g>
	<g id="user2_1_">
	</g>
	<g id="user2_4_">
	</g>
	<g id="user2_3_">
	</g>
	<g id="user2_2_">
	</g>
	<g id="Internet_2">
	</g>
	<g id="Enterprise">
	</g>
	<g id="Tunnel__x28_stackable_x29_">
	</g>
	<g id="New_Symbol">
	</g>
	<g id="New_Symbol_1">
	</g>
	<g id="Files">
	</g>
	<g id="BlobBlock">
	</g>
	<g id="E_x5F_Enterprise">
	</g>
	<g id="E_x5F_AD_FS">
	</g>
	<g id="C_x5F_Azure_Active_Directory">
	</g>
	<g>
		<g opacity="0.3">
			<rect x="5.867" y="31.051" fill="#212121" width="154" height="198"/>
			<rect x="5.867" y="31.051" opacity="0.3" fill="#212121" width="154" height="198"/>
		</g>
		<g>
			<rect x="4.867" y="30.051" fill="#FFFFFF" width="154" height="198"/>
			<rect x="4.867" y="30.051" opacity="0.3" fill="#FF9300" width="154" height="198"/>
		</g>
	</g>
	<g>
		<g opacity="0.3">
			<rect x="19.067" y="136.651" fill="#212121" width="127.6" height="79.2"/>
		</g>
		<g>
			<rect x="18.067" y="135.651" fill="#FFFFFF" width="127.6" height="79.2"/>
		</g>
	</g>
	<g>
		<g opacity="0.3">
			<rect x="19.067" y="88.251" fill="#212121" width="127.6" height="35.2"/>
		</g>
		<g>
			<rect x="18.067" y="87.251" fill="#FFFFFF" width="127.6" height="35.2"/>
		</g>
	</g>
	<g>
		<g opacity="0.3">
			<rect x="19.067" y="44.251" fill="#212121" width="127.6" height="35.2"/>
		</g>
		<g>
			<rect x="18.067" y="43.251" fill="#FFFFFF" width="127.6" height="35.2"/>
		</g>
	</g>
	<g>
		<g opacity="0.3">
			<rect x="587" y="31.051" fill="#212121" width="198" height="198"/>
			<rect x="587" y="31.051" opacity="0.5" fill="#212121" width="198" height="198"/>
		</g>
		<g>
			<rect x="586" y="30.051" fill="#FFFFFF" width="198" height="198"/>
			<rect x="586" y="30.051" opacity="0.5" fill="#FF9300" width="198" height="198"/>
		</g>
	</g>
	<g>
		<g opacity="0.3">
			<rect x="600.2" y="110.251" fill="#212121" width="171.6" height="35.2"/>
		</g>
		<g>
			<rect x="599.2" y="109.251" fill="#FFFFFF" width="171.6" height="35.2"/>
		</g>
	</g>
	<g>
		<g opacity="0.3">
			<rect x="600.2" y="180.651" fill="#212121" width="171.6" height="35.2"/>
		</g>
		<g>
			<rect x="599.2" y="179.651" fill="#FFFFFF" width="171.6" height="35.2"/>
		</g>
	</g>
	<g>
		<g opacity="0.3">
			<rect x="600.2" y="44.251" fill="#212121" width="171.6" height="35.2"/>
		</g>
		<g>
			<rect x="599.2" y="43.251" fill="#FFFFFF" width="171.6" height="35.2"/>
		</g>
	</g>
	<g>
		<g opacity="0.3">
			<rect x="199.8" y="31.051" fill="#212121" width="154" height="198"/>
			<rect x="199.8" y="31.051" opacity="0.5" fill="#212121" width="154" height="198"/>
		</g>
		<g>
			<rect x="198.8" y="30.051" fill="#FFFFFF" width="154" height="198"/>
			<rect x="198.8" y="30.051" opacity="0.5" fill="#699CD3" width="154" height="198"/>
		</g>
	</g>
	<g>
		<g opacity="0.3">
			<rect x="213" y="180.651" fill="#212121" width="127.6" height="35.2"/>
		</g>
		<g>
			<rect x="212" y="179.651" fill="#FFFFFF" width="127.6" height="35.2"/>
		</g>
	</g>
	<g>
		<g opacity="0.3">
			<rect x="393.4" y="79.451" fill="#212121" width="154" height="149.6"/>
			<rect x="393.4" y="79.451" opacity="0.8" fill="#212121" width="154" height="149.6"/>
		</g>
		<g>
			<rect x="392.4" y="78.451" fill="#FFFFFF" width="154" height="149.6"/>
			<rect x="392.4" y="78.451" opacity="0.8" fill="#699CD3" width="154" height="149.6"/>
		</g>
	</g>
	<g>
		<g opacity="0.3">
			<rect x="213" y="44.251" fill="#212121" width="127.6" height="79.2"/>
		</g>
		<g>
			<rect x="212" y="43.251" fill="#FFFFFF" width="127.6" height="79.2"/>
		</g>
	</g>
	<g>
		<g>
			<path fill="none" stroke="#3C3C41" stroke-miterlimit="10" d="M145.9,144.451h25.8c2.75,0,5-2.25,5-5v-51.6c0-2.75,2.25-5,5-5
				h24.818"/>
			<g>
				<polygon fill="#3C3C41" points="205.424,86.59 211.9,82.851 205.424,79.111 				"/>
			</g>
		</g>
	</g>
	<line fill="none" stroke="#3C3C41" stroke-miterlimit="10" x1="145.9" y1="104.851" x2="176.7" y2="104.851"/>
	<g>
		<path fill="none" stroke="#3C3C41" stroke-miterlimit="10" d="M145.9,60.851h25.8c2.75,0,5,2.25,5,5v25.8"/>
	</g>
	<g>
		<g>
			<line fill="none" stroke="#3C3C41" stroke-miterlimit="10" x1="339.5" y1="60.851" x2="593.718" y2="60.851"/>
			<g>
				<polygon fill="#3C3C41" points="592.624,64.59 599.1,60.851 592.624,57.111 				"/>
			</g>
		</g>
	</g>
	<g>
		<g>
			<line fill="none" stroke="#3C3C41" stroke-miterlimit="10" x1="145.9" y1="197" x2="206.518" y2="197"/>
			<g>
				<polygon fill="#3C3C41" points="205.424,200.74 211.9,197 205.424,193.26 				"/>
			</g>
		</g>
	</g>
	<g>
		<g>
			<line fill="none" stroke="#3C3C41" stroke-miterlimit="10" x1="339.5" y1="197" x2="400.118" y2="197"/>
			<g>
				<polygon fill="#3C3C41" points="399.024,200.74 405.5,197 399.024,193.26 				"/>
			</g>
		</g>
	</g>
	<g>
		<g>
			<line fill="none" stroke="#3C3C41" stroke-miterlimit="10" x1="339.5" y1="104.851" x2="400.118" y2="104.851"/>
			<g>
				<polygon fill="#3C3C41" points="399.024,108.59 405.5,104.851 399.024,101.111 				"/>
			</g>
		</g>
	</g>
	<g>
		<g>
			<path fill="none" stroke="#3C3C41" stroke-miterlimit="10" d="M593.718,197H579.7c-2.75,0-5-2.25-5-5v-60.4c0-2.75,2.25-5,5-5
				h14.018"/>
			<g>
				<polygon fill="#3C3C41" points="592.624,193.26 599.1,197 592.624,200.74 				"/>
			</g>
			<g>
				<polygon fill="#3C3C41" points="592.624,130.34 599.1,126.6 592.624,122.86 				"/>
			</g>
		</g>
	</g>
	<line fill="none" stroke="#3C3C41" stroke-miterlimit="10" x1="557.1" y1="161.8" x2="574.7" y2="161.8"/>
	<g>
		<path fill="none" stroke="#3C3C41" stroke-miterlimit="10" d="M533.1,126.6h19c2.75,0,5,2.25,5,5V192c0,2.75-2.25,5-5,5h-19"/>
	</g>
	<g>
		<g opacity="0.3">
			<rect x="406.6" y="180.651" fill="#212121" width="127.6" height="35.2"/>
		</g>
		<g>
			<rect x="405.6" y="179.651" fill="#FFFFFF" width="127.6" height="35.2"/>
		</g>
	</g>
	<g>
		<g opacity="0.3">
			<rect x="406.6" y="92.651" fill="#212121" width="127.6" height="79.2"/>
		</g>
		<g>
			<rect x="405.6" y="91.651" fill="#FFFFFF" width="127.6" height="79.2"/>
		</g>
	</g>
</g>
<g id="Text">
	<g>
		<path fill="#2F2F2F" d="M73.842,18.495h-2.208V8.692h2.208V18.495z"/>
		<path fill="#2F2F2F" d="M75.958,18.495V8.692h3.473c3.482,0,5.223,1.593,5.223,4.778c0,1.527-0.475,2.746-1.425,3.657
			s-2.216,1.367-3.797,1.367H75.958z M78.166,10.49v6.214h1.094c0.957,0,1.708-0.287,2.252-0.861s0.817-1.356,0.817-2.345
			c0-0.934-0.27-1.669-0.81-2.205s-1.298-0.803-2.273-0.803H78.166z"/>
		<path fill="#2F2F2F" d="M92.1,18.495h-5.879V8.692h5.653v1.798h-3.445v2.181h3.206v1.791h-3.206v2.242H92.1V18.495z"/>
	</g>
	<g>
		<path fill="#2F2F2F" d="M668.806,8.846h-2.796v8.005h-2.215V8.846h-2.782V7.048h7.793V8.846z"/>
		<path fill="#2F2F2F" d="M674.757,16.851h-2.044v-1.005h-0.027c-0.469,0.784-1.164,1.176-2.085,1.176
			c-0.679,0-1.213-0.192-1.603-0.578s-0.585-0.899-0.585-1.542c0-1.358,0.805-2.142,2.413-2.352l1.9-0.253
			c0-0.766-0.414-1.148-1.244-1.148c-0.834,0-1.627,0.249-2.379,0.745v-1.627c0.301-0.155,0.712-0.292,1.234-0.41
			c0.521-0.119,0.997-0.178,1.425-0.178c1.996,0,2.994,0.996,2.994,2.987V16.851z M672.727,14.007v-0.472l-1.271,0.164
			c-0.701,0.091-1.053,0.408-1.053,0.95c0,0.246,0.086,0.448,0.257,0.605s0.402,0.236,0.693,0.236c0.406,0,0.736-0.14,0.991-0.42
			C672.6,14.79,672.727,14.435,672.727,14.007z"/>
		<path fill="#2F2F2F" d="M681.02,11.799c-0.26-0.141-0.562-0.212-0.909-0.212c-0.469,0-0.836,0.172-1.101,0.516
			c-0.264,0.344-0.396,0.812-0.396,1.405v3.343h-2.16v-7h2.16v1.299h0.027c0.342-0.948,0.957-1.422,1.846-1.422
			c0.229,0,0.406,0.027,0.533,0.082V11.799z"/>
		<path fill="#2F2F2F" d="M688.974,16.051c0,1.299-0.376,2.305-1.128,3.018s-1.842,1.07-3.268,1.07
			c-0.943,0-1.691-0.134-2.242-0.403v-1.818c0.72,0.419,1.446,0.629,2.181,0.629c0.729,0,1.294-0.192,1.695-0.578
			c0.4-0.385,0.602-0.908,0.602-1.569v-0.554h-0.027c-0.492,0.784-1.22,1.176-2.181,1.176c-0.894,0-1.603-0.314-2.126-0.943
			c-0.524-0.629-0.786-1.472-0.786-2.529c0-1.185,0.291-2.126,0.875-2.823c0.583-0.697,1.351-1.046,2.304-1.046
			c0.852,0,1.49,0.328,1.914,0.984h0.027V9.851h2.16V16.051z M686.841,13.487v-0.554c0-0.442-0.131-0.819-0.394-1.131
			c-0.262-0.312-0.603-0.468-1.021-0.468c-0.479,0-0.854,0.187-1.128,0.561s-0.41,0.9-0.41,1.579c0,0.583,0.13,1.045,0.39,1.384
			s0.615,0.509,1.066,0.509c0.446,0,0.808-0.172,1.083-0.516C686.703,14.507,686.841,14.052,686.841,13.487z"/>
		<path fill="#2F2F2F" d="M697.067,13.966h-4.566c0.072,1.016,0.713,1.524,1.921,1.524c0.77,0,1.446-0.182,2.03-0.547v1.559
			c-0.647,0.346-1.488,0.52-2.522,0.52c-1.131,0-2.008-0.313-2.632-0.94c-0.625-0.626-0.937-1.5-0.937-2.622
			c0-1.162,0.337-2.083,1.012-2.762c0.674-0.679,1.504-1.019,2.488-1.019c1.021,0,1.811,0.303,2.368,0.909
			c0.559,0.606,0.838,1.429,0.838,2.468V13.966z M695.064,12.64c0-1.002-0.406-1.504-1.217-1.504c-0.347,0-0.646,0.144-0.899,0.431
			s-0.406,0.645-0.461,1.073H695.064z"/>
		<path fill="#2F2F2F" d="M702.633,16.769c-0.319,0.168-0.8,0.253-1.442,0.253c-1.522,0-2.283-0.791-2.283-2.372v-3.206h-1.135
			V9.851h1.135V8.34l2.153-0.615v2.126h1.572v1.593h-1.572v2.83c0,0.729,0.289,1.094,0.868,1.094c0.228,0,0.462-0.066,0.704-0.198
			V16.769z"/>
		<path fill="#2F2F2F" d="M703.614,16.666v-1.75c0.355,0.214,0.71,0.374,1.062,0.479c0.354,0.105,0.688,0.157,1.002,0.157
			c0.383,0,0.685-0.052,0.905-0.157c0.222-0.105,0.332-0.264,0.332-0.479c0-0.137-0.051-0.25-0.15-0.342
			c-0.101-0.091-0.229-0.171-0.387-0.239s-0.329-0.13-0.516-0.185c-0.188-0.055-0.367-0.116-0.54-0.185
			c-0.278-0.105-0.523-0.218-0.735-0.338s-0.39-0.261-0.533-0.42s-0.253-0.344-0.328-0.554s-0.112-0.458-0.112-0.745
			c0-0.392,0.085-0.729,0.256-1.012s0.399-0.514,0.684-0.694c0.285-0.18,0.611-0.312,0.978-0.396
			c0.367-0.084,0.749-0.126,1.146-0.126c0.31,0,0.624,0.024,0.943,0.072c0.318,0.048,0.633,0.117,0.943,0.208v1.668
			c-0.273-0.16-0.566-0.279-0.879-0.359c-0.312-0.08-0.618-0.12-0.919-0.12c-0.142,0-0.274,0.013-0.4,0.038
			c-0.125,0.025-0.235,0.062-0.331,0.109s-0.171,0.109-0.226,0.185s-0.082,0.161-0.082,0.256c0,0.127,0.041,0.237,0.123,0.328
			s0.188,0.17,0.321,0.236c0.132,0.066,0.279,0.125,0.44,0.178c0.162,0.052,0.322,0.106,0.482,0.161
			c0.287,0.1,0.547,0.209,0.779,0.328s0.432,0.257,0.598,0.417c0.167,0.16,0.294,0.346,0.383,0.561s0.134,0.469,0.134,0.766
			c0,0.415-0.09,0.769-0.271,1.063c-0.18,0.294-0.419,0.533-0.718,0.718c-0.298,0.185-0.643,0.319-1.032,0.403
			s-0.794,0.126-1.213,0.126C704.983,17.021,704.271,16.903,703.614,16.666z"/>
	</g>
	<g>
		<path fill="#2F2F2F" d="M223.916,16.782c-0.715,0.346-1.65,0.52-2.803,0.52c-1.504,0-2.687-0.442-3.548-1.326
			s-1.292-2.062-1.292-3.534c0-1.568,0.484-2.839,1.453-3.814s2.225-1.463,3.77-1.463c0.957,0,1.764,0.121,2.42,0.362v2.126
			c-0.656-0.392-1.404-0.588-2.242-0.588c-0.92,0-1.664,0.29-2.229,0.868s-0.848,1.363-0.848,2.352c0,0.948,0.267,1.703,0.8,2.266
			s1.251,0.844,2.153,0.844c0.861,0,1.65-0.209,2.365-0.629V16.782z"/>
		<path fill="#2F2F2F" d="M227.526,17.131h-2.16V6.768h2.16V17.131z"/>
		<path fill="#2F2F2F" d="M235.191,17.131h-2.044v-1.005h-0.027c-0.469,0.784-1.165,1.176-2.085,1.176
			c-0.679,0-1.213-0.192-1.603-0.578s-0.584-0.899-0.584-1.542c0-1.358,0.804-2.142,2.413-2.352l1.9-0.253
			c0-0.766-0.415-1.148-1.244-1.148c-0.834,0-1.627,0.249-2.379,0.745v-1.627c0.301-0.155,0.712-0.292,1.234-0.41
			s0.997-0.178,1.425-0.178c1.996,0,2.994,0.996,2.994,2.987V17.131z M233.161,14.287v-0.472l-1.271,0.164
			c-0.702,0.091-1.053,0.408-1.053,0.95c0,0.246,0.085,0.448,0.256,0.605s0.402,0.236,0.694,0.236c0.406,0,0.736-0.14,0.991-0.42
			S233.161,14.715,233.161,14.287z"/>
		<path fill="#2F2F2F" d="M236.566,16.946v-1.75c0.355,0.214,0.71,0.374,1.063,0.479s0.687,0.157,1.001,0.157
			c0.383,0,0.685-0.052,0.906-0.157s0.332-0.264,0.332-0.479c0-0.137-0.05-0.25-0.15-0.342s-0.229-0.171-0.386-0.239
			s-0.329-0.13-0.516-0.185s-0.367-0.116-0.54-0.185c-0.278-0.105-0.523-0.218-0.735-0.338s-0.39-0.261-0.533-0.42
			s-0.253-0.344-0.328-0.554s-0.113-0.458-0.113-0.745c0-0.392,0.085-0.729,0.256-1.012s0.399-0.514,0.684-0.694
			s0.611-0.312,0.978-0.396s0.749-0.126,1.145-0.126c0.31,0,0.625,0.024,0.943,0.072s0.633,0.117,0.943,0.208v1.668
			c-0.273-0.16-0.566-0.279-0.878-0.359s-0.619-0.12-0.919-0.12c-0.141,0-0.274,0.013-0.4,0.038s-0.236,0.062-0.332,0.109
			s-0.171,0.109-0.226,0.185s-0.082,0.161-0.082,0.256c0,0.127,0.041,0.237,0.123,0.328s0.189,0.17,0.321,0.236
			s0.279,0.125,0.441,0.178s0.322,0.106,0.482,0.161c0.287,0.1,0.547,0.209,0.779,0.328s0.432,0.257,0.598,0.417
			s0.294,0.346,0.383,0.561s0.133,0.469,0.133,0.766c0,0.415-0.09,0.769-0.27,1.063s-0.419,0.533-0.718,0.718
			s-0.643,0.319-1.032,0.403s-0.794,0.126-1.213,0.126C237.936,17.302,237.222,17.183,236.566,16.946z"/>
		<path fill="#2F2F2F" d="M242.879,16.946v-1.75c0.355,0.214,0.71,0.374,1.063,0.479s0.687,0.157,1.001,0.157
			c0.383,0,0.685-0.052,0.906-0.157s0.332-0.264,0.332-0.479c0-0.137-0.05-0.25-0.15-0.342s-0.229-0.171-0.386-0.239
			s-0.329-0.13-0.516-0.185s-0.367-0.116-0.54-0.185c-0.278-0.105-0.523-0.218-0.735-0.338s-0.39-0.261-0.533-0.42
			s-0.253-0.344-0.328-0.554s-0.113-0.458-0.113-0.745c0-0.392,0.085-0.729,0.256-1.012s0.399-0.514,0.684-0.694
			s0.611-0.312,0.978-0.396s0.749-0.126,1.145-0.126c0.31,0,0.625,0.024,0.943,0.072s0.633,0.117,0.943,0.208v1.668
			c-0.273-0.16-0.566-0.279-0.878-0.359s-0.619-0.12-0.919-0.12c-0.141,0-0.274,0.013-0.4,0.038s-0.236,0.062-0.332,0.109
			s-0.171,0.109-0.226,0.185s-0.082,0.161-0.082,0.256c0,0.127,0.041,0.237,0.123,0.328s0.189,0.17,0.321,0.236
			s0.279,0.125,0.441,0.178s0.322,0.106,0.482,0.161c0.287,0.1,0.547,0.209,0.779,0.328s0.432,0.257,0.598,0.417
			s0.294,0.346,0.383,0.561s0.133,0.469,0.133,0.766c0,0.415-0.09,0.769-0.27,1.063s-0.419,0.533-0.718,0.718
			s-0.643,0.319-1.032,0.403s-0.794,0.126-1.213,0.126C244.249,17.302,243.535,17.183,242.879,16.946z"/>
		<path fill="#2F2F2F" d="M250.618,9.023c-0.365,0-0.663-0.108-0.896-0.325s-0.349-0.482-0.349-0.796
			c0-0.324,0.116-0.588,0.349-0.793s0.531-0.308,0.896-0.308c0.369,0,0.669,0.103,0.899,0.308s0.345,0.469,0.345,0.793
			c0,0.328-0.115,0.597-0.345,0.807S250.987,9.023,250.618,9.023z M251.684,17.131h-2.16v-7h2.16V17.131z"/>
		<path fill="#2F2F2F" d="M258.764,16.878c-0.488,0.283-1.192,0.424-2.112,0.424c-1.076,0-1.946-0.326-2.611-0.978
			s-0.998-1.493-0.998-2.522c0-1.189,0.356-2.127,1.07-2.813s1.667-1.029,2.861-1.029c0.825,0,1.422,0.109,1.791,0.328v1.832
			c-0.451-0.337-0.955-0.506-1.511-0.506c-0.62,0-1.111,0.181-1.473,0.543s-0.543,0.862-0.543,1.5c0,0.62,0.173,1.106,0.52,1.459
			s0.823,0.53,1.429,0.53c0.538,0,1.064-0.168,1.579-0.506V16.878z"/>
		<path fill="#2F2F2F" d="M266.1,17.131h-2.044v-1.005h-0.027c-0.469,0.784-1.165,1.176-2.085,1.176
			c-0.679,0-1.213-0.192-1.603-0.578s-0.584-0.899-0.584-1.542c0-1.358,0.804-2.142,2.413-2.352l1.9-0.253
			c0-0.766-0.415-1.148-1.244-1.148c-0.834,0-1.627,0.249-2.379,0.745v-1.627c0.301-0.155,0.712-0.292,1.234-0.41
			s0.997-0.178,1.425-0.178c1.996,0,2.994,0.996,2.994,2.987V17.131z M264.069,14.287v-0.472l-1.271,0.164
			c-0.702,0.091-1.053,0.408-1.053,0.95c0,0.246,0.085,0.448,0.256,0.605s0.402,0.236,0.694,0.236c0.406,0,0.736-0.14,0.991-0.42
			S264.069,14.715,264.069,14.287z"/>
		<path fill="#2F2F2F" d="M269.958,17.131h-2.16V6.768h2.16V17.131z"/>
		<path fill="#2F2F2F" d="M277.798,17.131h-2.16V6.768h2.16V17.131z"/>
		<path fill="#2F2F2F" d="M285.463,17.131h-2.044v-1.005h-0.027c-0.469,0.784-1.165,1.176-2.085,1.176
			c-0.679,0-1.213-0.192-1.603-0.578s-0.584-0.899-0.584-1.542c0-1.358,0.804-2.142,2.413-2.352l1.9-0.253
			c0-0.766-0.415-1.148-1.244-1.148c-0.834,0-1.627,0.249-2.379,0.745v-1.627c0.301-0.155,0.712-0.292,1.234-0.41
			s0.997-0.178,1.425-0.178c1.996,0,2.994,0.996,2.994,2.987V17.131z M283.433,14.287v-0.472l-1.271,0.164
			c-0.702,0.091-1.053,0.408-1.053,0.95c0,0.246,0.085,0.448,0.256,0.605s0.402,0.236,0.694,0.236c0.406,0,0.736-0.14,0.991-0.42
			S283.433,14.715,283.433,14.287z"/>
		<path fill="#2F2F2F" d="M293.92,17.131h-2.153v-3.89c0-1.084-0.387-1.627-1.162-1.627c-0.374,0-0.681,0.144-0.923,0.431
			s-0.362,0.652-0.362,1.094v3.992h-2.16v-7h2.16v1.107h0.027c0.515-0.852,1.265-1.278,2.249-1.278c1.549,0,2.324,0.961,2.324,2.885
			V17.131z"/>
		<path fill="#2F2F2F" d="M302.539,16.331c0,1.299-0.376,2.305-1.128,3.018s-1.841,1.07-3.268,1.07
			c-0.943,0-1.691-0.134-2.242-0.403v-1.818c0.72,0.419,1.447,0.629,2.181,0.629c0.729,0,1.294-0.192,1.695-0.578
			s0.602-0.908,0.602-1.569v-0.554h-0.027c-0.492,0.784-1.219,1.176-2.181,1.176c-0.893,0-1.602-0.314-2.126-0.943
			s-0.786-1.472-0.786-2.529c0-1.185,0.292-2.126,0.875-2.823s1.351-1.046,2.304-1.046c0.852,0,1.49,0.328,1.914,0.984h0.027v-0.813
			h2.16V16.331z M300.406,13.768v-0.554c0-0.442-0.131-0.819-0.393-1.131s-0.603-0.468-1.022-0.468
			c-0.479,0-0.854,0.187-1.128,0.561s-0.41,0.9-0.41,1.579c0,0.583,0.13,1.045,0.39,1.384s0.615,0.509,1.066,0.509
			c0.447,0,0.808-0.172,1.083-0.516S300.406,14.333,300.406,13.768z"/>
		<path fill="#2F2F2F" d="M310.99,17.131h-2.153v-1.066h-0.034c-0.533,0.825-1.247,1.237-2.14,1.237
			c-1.623,0-2.434-0.982-2.434-2.946v-4.225h2.153v4.033c0,0.989,0.392,1.483,1.176,1.483c0.387,0,0.697-0.136,0.93-0.407
			s0.349-0.639,0.349-1.104v-4.006h2.153V17.131z"/>
		<path fill="#2F2F2F" d="M318.639,17.131h-2.044v-1.005h-0.027c-0.469,0.784-1.165,1.176-2.085,1.176
			c-0.679,0-1.213-0.192-1.603-0.578s-0.584-0.899-0.584-1.542c0-1.358,0.804-2.142,2.413-2.352l1.9-0.253
			c0-0.766-0.415-1.148-1.244-1.148c-0.834,0-1.627,0.249-2.379,0.745v-1.627c0.301-0.155,0.712-0.292,1.234-0.41
			s0.997-0.178,1.425-0.178c1.996,0,2.994,0.996,2.994,2.987V17.131z M316.609,14.287v-0.472l-1.271,0.164
			c-0.702,0.091-1.053,0.408-1.053,0.95c0,0.246,0.085,0.448,0.256,0.605s0.402,0.236,0.694,0.236c0.406,0,0.736-0.14,0.991-0.42
			S316.609,14.715,316.609,14.287z"/>
		<path fill="#2F2F2F" d="M327.234,16.331c0,1.299-0.376,2.305-1.128,3.018s-1.841,1.07-3.268,1.07
			c-0.943,0-1.691-0.134-2.242-0.403v-1.818c0.72,0.419,1.447,0.629,2.181,0.629c0.729,0,1.294-0.192,1.695-0.578
			s0.602-0.908,0.602-1.569v-0.554h-0.027c-0.492,0.784-1.219,1.176-2.181,1.176c-0.893,0-1.602-0.314-2.126-0.943
			s-0.786-1.472-0.786-2.529c0-1.185,0.292-2.126,0.875-2.823s1.351-1.046,2.304-1.046c0.852,0,1.49,0.328,1.914,0.984h0.027v-0.813
			h2.16V16.331z M325.101,13.768v-0.554c0-0.442-0.131-0.819-0.393-1.131s-0.603-0.468-1.022-0.468
			c-0.479,0-0.854,0.187-1.128,0.561s-0.41,0.9-0.41,1.579c0,0.583,0.13,1.045,0.39,1.384s0.615,0.509,1.066,0.509
			c0.447,0,0.808-0.172,1.083-0.516S325.101,14.333,325.101,13.768z"/>
		<path fill="#2F2F2F" d="M335.328,14.246h-4.566c0.073,1.016,0.713,1.524,1.921,1.524c0.77,0,1.447-0.182,2.03-0.547v1.559
			c-0.647,0.346-1.488,0.52-2.522,0.52c-1.13,0-2.007-0.313-2.632-0.94s-0.937-1.5-0.937-2.622c0-1.162,0.337-2.083,1.012-2.762
			s1.504-1.019,2.488-1.019c1.021,0,1.811,0.303,2.369,0.909s0.837,1.429,0.837,2.468V14.246z M333.325,12.92
			c0-1.002-0.406-1.504-1.217-1.504c-0.346,0-0.646,0.144-0.899,0.431s-0.407,0.645-0.461,1.073H333.325z"/>
	</g>
	<g>
		<path fill="#2F2F2F" d="M411.25,17.301c-1.404,0-2.548-0.456-3.432-1.367c-0.885-0.92-1.326-2.112-1.326-3.575
			c0-1.545,0.448-2.798,1.347-3.76c0.893-0.957,2.082-1.436,3.568-1.436c1.398,0,2.529,0.458,3.391,1.374
			c0.865,0.912,1.299,2.119,1.299,3.623c0,1.536-0.449,2.778-1.347,3.726c-0.032,0.032-0.062,0.062-0.089,0.092
			s-0.058,0.058-0.089,0.085l2.481,2.386h-3.09l-1.299-1.319C412.236,17.244,411.765,17.301,411.25,17.301z M411.346,9.064
			c-0.771,0-1.386,0.292-1.846,0.875c-0.456,0.579-0.684,1.347-0.684,2.304c0,0.971,0.228,1.739,0.684,2.304
			c0.455,0.565,1.053,0.848,1.791,0.848c0.761,0,1.364-0.273,1.812-0.82c0.446-0.556,0.67-1.319,0.67-2.29
			c0-1.012-0.217-1.802-0.649-2.372C412.694,9.347,412.102,9.064,411.346,9.064z"/>
		<path fill="#2F2F2F" d="M424.242,17.13h-2.153v-1.066h-0.034c-0.533,0.825-1.246,1.237-2.14,1.237
			c-1.622,0-2.434-0.982-2.434-2.946V10.13h2.153v4.033c0,0.989,0.393,1.483,1.176,1.483c0.388,0,0.697-0.136,0.93-0.407
			s0.349-0.639,0.349-1.104V10.13h2.153V17.13z"/>
		<path fill="#2F2F2F" d="M431.893,17.13h-2.044v-1.005h-0.027c-0.47,0.784-1.165,1.176-2.085,1.176
			c-0.68,0-1.214-0.192-1.604-0.578s-0.584-0.899-0.584-1.542c0-1.358,0.804-2.142,2.413-2.352l1.9-0.253
			c0-0.766-0.415-1.148-1.244-1.148c-0.834,0-1.627,0.249-2.379,0.745v-1.627c0.301-0.155,0.712-0.292,1.233-0.41
			c0.522-0.119,0.997-0.178,1.426-0.178c1.996,0,2.994,0.996,2.994,2.987V17.13z M429.862,14.287v-0.472l-1.271,0.164
			c-0.702,0.091-1.053,0.408-1.053,0.95c0,0.246,0.085,0.448,0.256,0.605s0.402,0.236,0.694,0.236c0.405,0,0.735-0.14,0.991-0.42
			C429.734,15.069,429.862,14.715,429.862,14.287z"/>
		<path fill="#2F2F2F" d="M440.35,17.13h-2.153v-3.89c0-1.084-0.388-1.627-1.162-1.627c-0.374,0-0.682,0.144-0.923,0.431
			c-0.242,0.287-0.362,0.652-0.362,1.094v3.992h-2.16v-7h2.16v1.107h0.027c0.515-0.852,1.265-1.278,2.249-1.278
			c1.549,0,2.324,0.961,2.324,2.885V17.13z"/>
		<path fill="#2F2F2F" d="M446.199,17.048c-0.319,0.168-0.8,0.253-1.442,0.253c-1.522,0-2.283-0.791-2.283-2.372v-3.206h-1.135
			V10.13h1.135V8.62l2.153-0.615v2.126h1.572v1.593h-1.572v2.83c0,0.729,0.289,1.094,0.868,1.094c0.228,0,0.462-0.066,0.704-0.198
			V17.048z"/>
		<path fill="#2F2F2F" d="M454.163,17.13h-2.153v-1.066h-0.034c-0.533,0.825-1.246,1.237-2.14,1.237
			c-1.622,0-2.434-0.982-2.434-2.946V10.13h2.153v4.033c0,0.989,0.393,1.483,1.176,1.483c0.388,0,0.697-0.136,0.93-0.407
			s0.349-0.639,0.349-1.104V10.13h2.153V17.13z"/>
		<path fill="#2F2F2F" d="M467.047,17.13h-2.153v-3.992c0-1.016-0.374-1.524-1.121-1.524c-0.355,0-0.646,0.153-0.868,0.458
			c-0.224,0.305-0.335,0.686-0.335,1.142v3.917h-2.16v-4.033c0-0.989-0.367-1.483-1.101-1.483c-0.369,0-0.664,0.146-0.886,0.438
			c-0.221,0.292-0.331,0.688-0.331,1.189v3.89h-2.16v-7h2.16v1.094h0.027c0.223-0.374,0.536-0.678,0.939-0.913
			s0.845-0.352,1.323-0.352c0.988,0,1.665,0.435,2.03,1.306c0.533-0.871,1.316-1.306,2.352-1.306c1.521,0,2.283,0.939,2.283,2.816
			V17.13z"/>
		<path fill="#2F2F2F" d="M474.778,17.13h-2.16V6.767h2.16V17.13z"/>
		<path fill="#2F2F2F" d="M482.443,17.13h-2.044v-1.005h-0.027c-0.47,0.784-1.165,1.176-2.085,1.176
			c-0.68,0-1.214-0.192-1.604-0.578s-0.584-0.899-0.584-1.542c0-1.358,0.804-2.142,2.413-2.352l1.9-0.253
			c0-0.766-0.415-1.148-1.244-1.148c-0.834,0-1.627,0.249-2.379,0.745v-1.627c0.301-0.155,0.712-0.292,1.233-0.41
			c0.522-0.119,0.997-0.178,1.426-0.178c1.996,0,2.994,0.996,2.994,2.987V17.13z M480.413,14.287v-0.472l-1.271,0.164
			c-0.702,0.091-1.053,0.408-1.053,0.95c0,0.246,0.085,0.448,0.256,0.605s0.402,0.236,0.694,0.236c0.405,0,0.735-0.14,0.991-0.42
			C480.285,15.069,480.413,14.715,480.413,14.287z"/>
		<path fill="#2F2F2F" d="M490.9,17.13h-2.153v-3.89c0-1.084-0.388-1.627-1.162-1.627c-0.374,0-0.682,0.144-0.923,0.431
			c-0.242,0.287-0.362,0.652-0.362,1.094v3.992h-2.16v-7h2.16v1.107h0.027c0.515-0.852,1.265-1.278,2.249-1.278
			c1.549,0,2.324,0.961,2.324,2.885V17.13z"/>
		<path fill="#2F2F2F" d="M499.519,16.331c0,1.299-0.376,2.305-1.128,3.018s-1.841,1.07-3.268,1.07c-0.943,0-1.69-0.134-2.242-0.403
			v-1.818c0.721,0.419,1.447,0.629,2.181,0.629c0.729,0,1.295-0.192,1.695-0.578c0.401-0.385,0.602-0.908,0.602-1.569v-0.554h-0.027
			c-0.492,0.784-1.219,1.176-2.181,1.176c-0.893,0-1.602-0.314-2.126-0.943c-0.523-0.629-0.786-1.472-0.786-2.529
			c0-1.185,0.292-2.126,0.875-2.823c0.584-0.697,1.352-1.046,2.304-1.046c0.853,0,1.49,0.328,1.914,0.984h0.027V10.13h2.16V16.331z
			 M497.386,13.767v-0.554c0-0.442-0.131-0.819-0.393-1.131c-0.263-0.312-0.603-0.468-1.022-0.468c-0.479,0-0.854,0.187-1.128,0.561
			s-0.41,0.9-0.41,1.579c0,0.583,0.13,1.045,0.39,1.384s0.615,0.509,1.066,0.509c0.447,0,0.808-0.172,1.084-0.516
			C497.248,14.787,497.386,14.332,497.386,13.767z"/>
		<path fill="#2F2F2F" d="M507.969,17.13h-2.153v-1.066h-0.034c-0.533,0.825-1.246,1.237-2.14,1.237
			c-1.622,0-2.434-0.982-2.434-2.946V10.13h2.153v4.033c0,0.989,0.393,1.483,1.176,1.483c0.388,0,0.697-0.136,0.93-0.407
			s0.349-0.639,0.349-1.104V10.13h2.153V17.13z"/>
		<path fill="#2F2F2F" d="M515.619,17.13h-2.044v-1.005h-0.027c-0.47,0.784-1.165,1.176-2.085,1.176
			c-0.68,0-1.214-0.192-1.604-0.578s-0.584-0.899-0.584-1.542c0-1.358,0.804-2.142,2.413-2.352l1.9-0.253
			c0-0.766-0.415-1.148-1.244-1.148c-0.834,0-1.627,0.249-2.379,0.745v-1.627c0.301-0.155,0.712-0.292,1.233-0.41
			c0.522-0.119,0.997-0.178,1.426-0.178c1.996,0,2.994,0.996,2.994,2.987V17.13z M513.589,14.287v-0.472l-1.271,0.164
			c-0.702,0.091-1.053,0.408-1.053,0.95c0,0.246,0.085,0.448,0.256,0.605s0.402,0.236,0.694,0.236c0.405,0,0.735-0.14,0.991-0.42
			C513.461,15.069,513.589,14.715,513.589,14.287z"/>
		<path fill="#2F2F2F" d="M524.214,16.331c0,1.299-0.376,2.305-1.128,3.018s-1.842,1.07-3.268,1.07
			c-0.943,0-1.691-0.134-2.242-0.403v-1.818c0.72,0.419,1.446,0.629,2.181,0.629c0.729,0,1.294-0.192,1.695-0.578
			c0.4-0.385,0.602-0.908,0.602-1.569v-0.554h-0.027c-0.492,0.784-1.22,1.176-2.181,1.176c-0.894,0-1.603-0.314-2.126-0.943
			c-0.524-0.629-0.786-1.472-0.786-2.529c0-1.185,0.291-2.126,0.875-2.823c0.583-0.697,1.351-1.046,2.304-1.046
			c0.852,0,1.49,0.328,1.914,0.984h0.027V10.13h2.16V16.331z M522.081,13.767v-0.554c0-0.442-0.131-0.819-0.394-1.131
			c-0.262-0.312-0.603-0.468-1.021-0.468c-0.479,0-0.854,0.187-1.128,0.561s-0.41,0.9-0.41,1.579c0,0.583,0.13,1.045,0.39,1.384
			s0.615,0.509,1.066,0.509c0.446,0,0.808-0.172,1.083-0.516C521.943,14.787,522.081,14.332,522.081,13.767z"/>
		<path fill="#2F2F2F" d="M532.308,14.246h-4.566c0.072,1.016,0.713,1.524,1.921,1.524c0.77,0,1.446-0.182,2.03-0.547v1.559
			c-0.647,0.346-1.488,0.52-2.522,0.52c-1.131,0-2.008-0.313-2.632-0.94c-0.625-0.626-0.937-1.5-0.937-2.622
			c0-1.162,0.337-2.083,1.012-2.762c0.674-0.679,1.504-1.019,2.488-1.019c1.021,0,1.811,0.303,2.368,0.909
			c0.559,0.606,0.838,1.429,0.838,2.468V14.246z M530.305,12.919c0-1.002-0.406-1.504-1.217-1.504c-0.347,0-0.646,0.144-0.899,0.431
			s-0.406,0.645-0.461,1.073H530.305z"/>
	</g>
	<g>
		<path fill="#2F2F2F" d="M63.232,61.737c0,1.162-0.246,2.065-0.738,2.71s-1.151,0.967-1.976,0.967
			c-0.383,0-0.697-0.055-0.943-0.164v-1.135c0.246,0.178,0.565,0.267,0.957,0.267c1.035,0,1.552-0.877,1.552-2.632v-6.303h1.148
			V61.737z"/>
		<path fill="#2F2F2F" d="M71.143,65.25h-1.121v-1.107h-0.027c-0.465,0.848-1.185,1.271-2.16,1.271c-1.668,0-2.502-0.994-2.502-2.98
			V58.25h1.114v4.006c0,1.477,0.565,2.215,1.695,2.215c0.547,0,0.997-0.202,1.35-0.605s0.53-0.931,0.53-1.583V58.25h1.121V65.25z"/>
		<path fill="#2F2F2F" d="M74.399,64.239h-0.027v4.231H73.25V58.25h1.121v1.23h0.027c0.551-0.93,1.358-1.395,2.42-1.395
			c0.902,0,1.606,0.313,2.112,0.94s0.759,1.466,0.759,2.519c0,1.171-0.285,2.109-0.854,2.813s-1.349,1.056-2.338,1.056
			C75.591,65.415,74.891,65.022,74.399,64.239z M74.372,61.416v0.978c0,0.579,0.188,1.07,0.564,1.473s0.854,0.605,1.432,0.605
			c0.679,0,1.211-0.26,1.596-0.779s0.578-1.242,0.578-2.167c0-0.779-0.18-1.39-0.54-1.832s-0.848-0.663-1.463-0.663
			c-0.652,0-1.176,0.227-1.572,0.68S74.372,60.732,74.372,61.416z"/>
		<path fill="#2F2F2F" d="M86.915,58.25l-3.22,8.121c-0.574,1.449-1.381,2.174-2.42,2.174c-0.292,0-0.536-0.03-0.731-0.089v-1.005
			c0.242,0.082,0.462,0.123,0.663,0.123c0.565,0,0.989-0.337,1.271-1.012l0.561-1.326l-2.734-6.986h1.244l1.894,5.387
			c0.023,0.068,0.071,0.246,0.144,0.533h0.041c0.023-0.109,0.068-0.283,0.137-0.52l1.989-5.4H86.915z"/>
		<path fill="#2F2F2F" d="M91.833,65.182c-0.264,0.146-0.613,0.219-1.046,0.219c-1.226,0-1.839-0.684-1.839-2.051v-4.143h-1.203
			V58.25h1.203v-1.709l1.121-0.362v2.071h1.764v0.957h-1.764v3.944c0,0.469,0.08,0.804,0.239,1.005s0.424,0.301,0.793,0.301
			c0.283,0,0.526-0.078,0.731-0.232V65.182z"/>
		<path fill="#2F2F2F" d="M98.826,62.031h-4.942c0.018,0.779,0.228,1.381,0.629,1.805s0.953,0.636,1.654,0.636
			c0.789,0,1.513-0.26,2.174-0.779v1.053c-0.615,0.447-1.429,0.67-2.44,0.67c-0.989,0-1.766-0.318-2.331-0.954
			s-0.848-1.53-0.848-2.683c0-1.089,0.309-1.977,0.926-2.663s1.384-1.029,2.3-1.029s1.625,0.296,2.126,0.889
			s0.752,1.415,0.752,2.468V62.031z M97.677,61.081c-0.004-0.647-0.161-1.151-0.468-1.511s-0.735-0.54-1.282-0.54
			c-0.529,0-0.978,0.189-1.347,0.567s-0.597,0.873-0.684,1.483H97.677z"/>
		<path fill="#2F2F2F" d="M104.159,59.385c-0.196-0.15-0.479-0.226-0.848-0.226c-0.479,0-0.878,0.226-1.2,0.677
			s-0.482,1.066-0.482,1.846v3.568h-1.121v-7h1.121v1.442h0.027c0.16-0.492,0.403-0.876,0.731-1.152s0.695-0.414,1.101-0.414
			c0.292,0,0.515,0.032,0.67,0.096V59.385z"/>
	</g>
	<g>
		<path fill="#2F2F2F" d="M70.127,108.841c-0.725,0.383-1.627,0.574-2.707,0.574c-1.395,0-2.511-0.449-3.35-1.347
			s-1.258-2.076-1.258-3.534c0-1.568,0.472-2.834,1.415-3.801s2.14-1.449,3.589-1.449c0.93,0,1.7,0.134,2.311,0.403v1.224
			c-0.702-0.392-1.477-0.588-2.324-0.588c-1.125,0-2.038,0.376-2.738,1.128s-1.049,1.757-1.049,3.015
			c0,1.194,0.327,2.146,0.981,2.854s1.512,1.063,2.574,1.063c0.984,0,1.836-0.219,2.557-0.656V108.841z"/>
		<path fill="#2F2F2F" d="M74.676,109.415c-1.035,0-1.86-0.327-2.478-0.981s-0.926-1.521-0.926-2.601
			c0-1.176,0.321-2.094,0.964-2.755s1.511-0.991,2.604-0.991c1.043,0,1.858,0.321,2.444,0.964s0.878,1.534,0.878,2.673
			c0,1.117-0.315,2.011-0.947,2.683S75.738,109.415,74.676,109.415z M74.758,103.03c-0.72,0-1.29,0.245-1.709,0.735
			s-0.629,1.166-0.629,2.027c0,0.83,0.212,1.483,0.636,1.962s0.991,0.718,1.702,0.718c0.725,0,1.282-0.235,1.671-0.704
			s0.584-1.137,0.584-2.003c0-0.875-0.195-1.549-0.584-2.023S75.483,103.03,74.758,103.03z"/>
		<path fill="#2F2F2F" d="M85.688,109.251h-1.121v-3.992c0-1.486-0.542-2.229-1.627-2.229c-0.561,0-1.024,0.211-1.391,0.632
			s-0.55,0.954-0.55,1.596v3.992h-1.121v-7h1.121v1.162h0.027c0.529-0.884,1.294-1.326,2.297-1.326c0.766,0,1.351,0.247,1.757,0.742
			s0.608,1.209,0.608,2.143V109.251z"/>
		<path fill="#2F2F2F" d="M93.763,109.251h-1.121v-1.189h-0.027c-0.52,0.902-1.322,1.354-2.406,1.354
			c-0.879,0-1.583-0.313-2.109-0.94s-0.79-1.48-0.79-2.56c0-1.158,0.292-2.085,0.875-2.782s1.36-1.046,2.331-1.046
			c0.961,0,1.661,0.378,2.099,1.135h0.027v-4.334h1.121V109.251z M92.642,106.086v-1.032c0-0.565-0.187-1.043-0.561-1.436
			s-0.848-0.588-1.422-0.588c-0.684,0-1.221,0.25-1.613,0.752s-0.588,1.194-0.588,2.078c0,0.807,0.188,1.443,0.564,1.911
			s0.881,0.701,1.514,0.701c0.625,0,1.131-0.226,1.521-0.677S92.642,106.774,92.642,106.086z"/>
		<path fill="#2F2F2F" d="M100.92,109.251h-1.121v-1.094h-0.027c-0.488,0.838-1.206,1.258-2.153,1.258
			c-0.697,0-1.243-0.185-1.637-0.554s-0.591-0.859-0.591-1.47c0-1.308,0.77-2.069,2.311-2.283l2.099-0.294
			c0-1.189-0.481-1.784-1.442-1.784c-0.843,0-1.604,0.287-2.283,0.861v-1.148c0.688-0.438,1.481-0.656,2.379-0.656
			c1.645,0,2.468,0.871,2.468,2.611V109.251z M99.799,105.71l-1.688,0.232c-0.52,0.073-0.912,0.202-1.176,0.386
			s-0.396,0.512-0.396,0.981c0,0.342,0.122,0.621,0.366,0.837s0.568,0.325,0.974,0.325c0.556,0,1.015-0.195,1.377-0.584
			s0.543-0.883,0.543-1.48V105.71z"/>
	</g>
	<g>
		<path fill="#2F2F2F" d="M256.1,83.545v3.705h-1.148v-9.803h2.693c1.048,0,1.86,0.255,2.437,0.766s0.865,1.23,0.865,2.16
			s-0.32,1.691-0.96,2.283s-1.505,0.889-2.594,0.889H256.1z M256.1,78.487v4.02h1.203c0.793,0,1.398-0.181,1.815-0.543
			s0.625-0.874,0.625-1.535c0-1.294-0.766-1.941-2.297-1.941H256.1z"/>
		<path fill="#2F2F2F" d="M268.524,80.25l-3.22,8.121c-0.574,1.449-1.381,2.174-2.42,2.174c-0.292,0-0.536-0.03-0.731-0.089v-1.005
			c0.242,0.082,0.462,0.123,0.663,0.123c0.565,0,0.989-0.337,1.271-1.012l0.561-1.326l-2.734-6.986h1.244l1.894,5.387
			c0.023,0.068,0.071,0.246,0.144,0.533h0.041c0.023-0.109,0.068-0.283,0.137-0.52l1.989-5.4H268.524z"/>
		<path fill="#2F2F2F" d="M273.442,87.182c-0.264,0.146-0.613,0.219-1.046,0.219c-1.226,0-1.839-0.684-1.839-2.051v-4.143h-1.203
			V80.25h1.203v-1.709l1.121-0.362v2.071h1.764v0.957h-1.764v3.944c0,0.469,0.08,0.804,0.239,1.005s0.424,0.301,0.793,0.301
			c0.283,0,0.526-0.078,0.731-0.232V87.182z"/>
		<path fill="#2F2F2F" d="M280.633,87.25h-1.121v-4.033c0-1.458-0.542-2.188-1.627-2.188c-0.547,0-1.007,0.211-1.381,0.632
			s-0.561,0.963-0.561,1.624v3.965h-1.121V76.887h1.121v4.525h0.027c0.538-0.884,1.303-1.326,2.297-1.326
			c1.577,0,2.365,0.95,2.365,2.851V87.25z"/>
		<path fill="#2F2F2F" d="M285.637,87.415c-1.035,0-1.86-0.327-2.478-0.981s-0.926-1.521-0.926-2.601
			c0-1.176,0.321-2.094,0.964-2.755s1.511-0.991,2.604-0.991c1.043,0,1.858,0.321,2.444,0.964s0.878,1.534,0.878,2.673
			c0,1.117-0.315,2.011-0.947,2.683S286.699,87.415,285.637,87.415z M285.719,81.03c-0.72,0-1.29,0.245-1.709,0.735
			s-0.629,1.166-0.629,2.027c0,0.83,0.212,1.483,0.636,1.962s0.991,0.718,1.702,0.718c0.725,0,1.282-0.235,1.671-0.704
			s0.584-1.137,0.584-2.003c0-0.875-0.195-1.549-0.584-2.023S286.443,81.03,285.719,81.03z"/>
		<path fill="#2F2F2F" d="M296.649,87.25h-1.121v-3.992c0-1.486-0.542-2.229-1.627-2.229c-0.561,0-1.024,0.211-1.391,0.632
			s-0.55,0.954-0.55,1.596v3.992h-1.121v-7h1.121v1.162h0.027c0.529-0.884,1.294-1.326,2.297-1.326c0.766,0,1.351,0.247,1.757,0.742
			s0.608,1.209,0.608,2.143V87.25z"/>
	</g>
	<g>
		<path fill="#2F2F2F" d="M264.665,201.241c-0.725,0.383-1.627,0.574-2.707,0.574c-1.395,0-2.511-0.449-3.35-1.347
			s-1.258-2.076-1.258-3.534c0-1.568,0.472-2.834,1.415-3.801s2.14-1.449,3.589-1.449c0.93,0,1.7,0.134,2.311,0.403v1.224
			c-0.702-0.392-1.477-0.588-2.324-0.588c-1.125,0-2.038,0.376-2.738,1.128s-1.049,1.757-1.049,3.015
			c0,1.194,0.327,2.146,0.981,2.854s1.512,1.063,2.574,1.063c0.984,0,1.836-0.219,2.557-0.656V201.241z"/>
		<path fill="#2F2F2F" d="M272.892,194.596l-0.157,0.725h-1.784l-0.431,2.051h1.921l-0.185,0.725h-1.88l-0.602,2.714h-0.861
			l0.588-2.714h-1.709l-0.574,2.714h-0.854l0.574-2.714h-1.791l0.137-0.725h1.812l0.417-2.051h-1.894l0.144-0.725h1.894l0.574-2.748
			h0.861l-0.574,2.748h1.723l0.588-2.748h0.841l-0.574,2.748H272.892z M270.103,195.321h-1.723l-0.451,2.051h1.736L270.103,195.321z
			"/>
		<path fill="#2F2F2F" d="M274.71,200.092l-1.094,3.363h-0.8l0.8-3.363H274.71z"/>
		<path fill="#2F2F2F" d="M285.682,192.887h-3.828v3.391h3.541v1.032h-3.541v4.341h-1.148v-9.803h4.977V192.887z"/>
		<path fill="#2F2F2F" d="M294.249,194.596l-0.157,0.725h-1.784l-0.431,2.051h1.921l-0.185,0.725h-1.88l-0.602,2.714h-0.861
			l0.588-2.714h-1.709l-0.574,2.714h-0.854l0.574-2.714h-1.791l0.137-0.725h1.812l0.417-2.051h-1.894l0.144-0.725h1.894l0.574-2.748
			h0.861l-0.574,2.748h1.723l0.588-2.748h0.841l-0.574,2.748H294.249z M291.46,195.321h-1.723l-0.451,2.051h1.736L291.46,195.321z"
			/>
	</g>
	<g>
		<path fill="#2F2F2F" d="M464.98,201.815c-1.386,0-2.5-0.458-3.343-1.374c-0.834-0.916-1.251-2.108-1.251-3.575
			c0-1.582,0.426-2.839,1.278-3.773c0.856-0.939,2.017-1.408,3.479-1.408c1.349,0,2.438,0.456,3.268,1.367
			c0.829,0.912,1.244,2.103,1.244,3.575c0,1.6-0.424,2.864-1.271,3.794c-0.201,0.223-0.415,0.415-0.643,0.574l2.755,1.976h-2.085
			l-1.846-1.381C466.083,201.74,465.555,201.815,464.98,201.815z M465.062,192.723c-1.03,0-1.866,0.372-2.509,1.114
			s-0.964,1.718-0.964,2.926c0,1.203,0.312,2.176,0.937,2.919c0.629,0.734,1.446,1.101,2.454,1.101c1.075,0,1.923-0.351,2.543-1.053
			c0.619-0.702,0.93-1.684,0.93-2.946c0-1.299-0.301-2.299-0.902-3.001C466.949,193.076,466.119,192.723,465.062,192.723z"/>
		<path fill="#2F2F2F" d="M478.413,194.596l-0.157,0.725h-1.784l-0.431,2.051h1.921l-0.185,0.725h-1.88l-0.602,2.714h-0.861
			l0.588-2.714h-1.709l-0.574,2.714h-0.854l0.574-2.714h-1.791l0.137-0.725h1.812l0.417-2.051h-1.894l0.144-0.725h1.894l0.574-2.748
			h0.861l-0.574,2.748h1.723l0.588-2.748h0.841l-0.574,2.748H478.413z M475.624,195.321h-1.723l-0.451,2.051h1.736L475.624,195.321z
			"/>
	</g>
	<g>
		<path fill="#2F2F2F" d="M65.669,161.048l-3.63,9.803h-1.265l-3.555-9.803h1.278l2.714,7.772c0.086,0.25,0.153,0.54,0.198,0.868
			h0.027c0.037-0.273,0.112-0.567,0.226-0.882l2.769-7.759H65.669z"/>
		<path fill="#2F2F2F" d="M66.445,170.454v-1.354c0.155,0.137,0.341,0.26,0.557,0.369s0.444,0.202,0.684,0.277
			s0.479,0.133,0.721,0.174s0.465,0.062,0.67,0.062c0.707,0,1.234-0.131,1.583-0.393s0.523-0.639,0.523-1.131
			c0-0.264-0.058-0.495-0.174-0.69s-0.277-0.375-0.482-0.537s-0.448-0.317-0.728-0.465s-0.582-0.304-0.906-0.468
			c-0.342-0.173-0.661-0.349-0.957-0.526s-0.554-0.374-0.772-0.588s-0.391-0.457-0.516-0.728s-0.188-0.589-0.188-0.954
			c0-0.447,0.098-0.835,0.294-1.166s0.454-0.603,0.772-0.817s0.683-0.374,1.09-0.479s0.824-0.157,1.248-0.157
			c0.966,0,1.67,0.116,2.112,0.349v1.292c-0.579-0.401-1.322-0.602-2.229-0.602c-0.25,0-0.501,0.026-0.752,0.079
			s-0.474,0.138-0.67,0.256s-0.355,0.271-0.479,0.458s-0.185,0.415-0.185,0.684c0,0.25,0.047,0.467,0.14,0.649
			s0.231,0.349,0.414,0.499s0.404,0.296,0.667,0.438s0.564,0.296,0.906,0.465c0.351,0.173,0.684,0.355,0.998,0.547
			s0.59,0.403,0.827,0.636s0.425,0.49,0.564,0.772s0.208,0.606,0.208,0.971c0,0.483-0.095,0.892-0.284,1.227
			s-0.444,0.607-0.766,0.817s-0.691,0.361-1.111,0.455s-0.861,0.14-1.326,0.14c-0.155,0-0.346-0.013-0.574-0.038
			s-0.46-0.062-0.697-0.109s-0.461-0.107-0.673-0.178S66.573,170.541,66.445,170.454z"/>
		<path fill="#2F2F2F" d="M75.332,169.292l-1.094,3.363h-0.8l0.8-3.363H75.332z"/>
		<path fill="#2F2F2F" d="M88.614,161.048l-3.63,9.803H83.72l-3.555-9.803h1.278l2.714,7.772c0.086,0.25,0.153,0.54,0.198,0.868
			h0.027c0.037-0.273,0.112-0.567,0.226-0.882l2.769-7.759H88.614z"/>
		<path fill="#2F2F2F" d="M89.391,170.454v-1.354c0.155,0.137,0.341,0.26,0.557,0.369s0.444,0.202,0.684,0.277
			s0.479,0.133,0.721,0.174s0.465,0.062,0.67,0.062c0.707,0,1.234-0.131,1.583-0.393s0.523-0.639,0.523-1.131
			c0-0.264-0.058-0.495-0.174-0.69s-0.277-0.375-0.482-0.537s-0.448-0.317-0.728-0.465s-0.582-0.304-0.906-0.468
			c-0.342-0.173-0.661-0.349-0.957-0.526s-0.554-0.374-0.772-0.588s-0.391-0.457-0.516-0.728s-0.188-0.589-0.188-0.954
			c0-0.447,0.098-0.835,0.294-1.166s0.454-0.603,0.772-0.817s0.683-0.374,1.09-0.479s0.824-0.157,1.248-0.157
			c0.966,0,1.67,0.116,2.112,0.349v1.292c-0.579-0.401-1.322-0.602-2.229-0.602c-0.25,0-0.501,0.026-0.752,0.079
			s-0.474,0.138-0.67,0.256s-0.355,0.271-0.479,0.458s-0.185,0.415-0.185,0.684c0,0.25,0.047,0.467,0.14,0.649
			s0.231,0.349,0.414,0.499s0.404,0.296,0.667,0.438s0.564,0.296,0.906,0.465c0.351,0.173,0.684,0.355,0.998,0.547
			s0.59,0.403,0.827,0.636s0.425,0.49,0.564,0.772s0.208,0.606,0.208,0.971c0,0.483-0.095,0.892-0.284,1.227
			s-0.444,0.607-0.766,0.817s-0.691,0.361-1.111,0.455s-0.861,0.14-1.326,0.14c-0.155,0-0.346-0.013-0.574-0.038
			s-0.46-0.062-0.697-0.109s-0.461-0.107-0.673-0.178S89.519,170.541,89.391,170.454z"/>
		<path fill="#2F2F2F" d="M103.826,170.44c-0.725,0.383-1.627,0.574-2.707,0.574c-1.395,0-2.511-0.449-3.35-1.347
			s-1.258-2.076-1.258-3.534c0-1.568,0.472-2.834,1.415-3.801s2.14-1.449,3.589-1.449c0.93,0,1.7,0.134,2.311,0.403v1.224
			c-0.702-0.392-1.477-0.588-2.324-0.588c-1.125,0-2.038,0.376-2.738,1.128s-1.049,1.757-1.049,3.015
			c0,1.194,0.327,2.146,0.981,2.854s1.512,1.063,2.574,1.063c0.984,0,1.836-0.219,2.557-0.656V170.44z"/>
		<path fill="#2F2F2F" d="M106.904,169.292l-1.094,3.363h-0.8l0.8-3.363H106.904z"/>
		<path fill="#2F2F2F" d="M62.277,191.851h-1.271l-1.039-2.748H55.81l-0.978,2.748h-1.278l3.76-9.803h1.189L62.277,191.851z
			 M59.59,188.07l-1.538-4.177c-0.05-0.137-0.1-0.355-0.15-0.656h-0.027c-0.045,0.278-0.098,0.497-0.157,0.656l-1.524,4.177H59.59z"
			/>
		<path fill="#2F2F2F" d="M68.888,185.172l-4.143,5.722h4.102v0.957h-5.749v-0.349l4.143-5.694h-3.753v-0.957h5.4V185.172z"/>
		<path fill="#2F2F2F" d="M75.985,191.851h-1.121v-1.107h-0.027c-0.465,0.848-1.185,1.271-2.16,1.271
			c-1.668,0-2.502-0.994-2.502-2.98v-4.184h1.114v4.006c0,1.477,0.565,2.215,1.695,2.215c0.547,0,0.997-0.202,1.35-0.605
			s0.53-0.931,0.53-1.583v-4.033h1.121V191.851z"/>
		<path fill="#2F2F2F" d="M81.742,185.985c-0.196-0.15-0.479-0.226-0.848-0.226c-0.479,0-0.878,0.226-1.2,0.677
			s-0.482,1.066-0.482,1.846v3.568h-1.121v-7h1.121v1.442h0.027c0.16-0.492,0.403-0.876,0.731-1.152s0.695-0.414,1.101-0.414
			c0.292,0,0.515,0.032,0.67,0.096V185.985z"/>
		<path fill="#2F2F2F" d="M88.585,188.631h-4.942c0.018,0.779,0.228,1.381,0.629,1.805s0.953,0.636,1.654,0.636
			c0.789,0,1.513-0.26,2.174-0.779v1.053c-0.615,0.447-1.429,0.67-2.44,0.67c-0.989,0-1.766-0.318-2.331-0.954
			s-0.848-1.53-0.848-2.683c0-1.089,0.309-1.977,0.926-2.663s1.384-1.029,2.3-1.029s1.625,0.296,2.126,0.889
			s0.752,1.415,0.752,2.468V188.631z M87.437,187.681c-0.004-0.647-0.161-1.151-0.468-1.511s-0.735-0.54-1.282-0.54
			c-0.529,0-0.978,0.189-1.347,0.567s-0.597,0.873-0.684,1.483H87.437z"/>
		<path fill="#2F2F2F" d="M100.938,191.44c-0.725,0.383-1.627,0.574-2.707,0.574c-1.395,0-2.511-0.449-3.35-1.347
			s-1.258-2.076-1.258-3.534c0-1.568,0.472-2.834,1.415-3.801s2.14-1.449,3.589-1.449c0.93,0,1.7,0.134,2.311,0.403v1.224
			c-0.702-0.392-1.477-0.588-2.324-0.588c-1.125,0-2.038,0.376-2.738,1.128s-1.049,1.757-1.049,3.015
			c0,1.194,0.327,2.146,0.981,2.854s1.512,1.063,2.574,1.063c0.984,0,1.836-0.219,2.557-0.656V191.44z"/>
		<path fill="#2F2F2F" d="M107.649,191.851h-5.086v-9.803h1.148v8.764h3.938V191.851z"/>
		<path fill="#2F2F2F" d="M110.179,191.851h-1.148v-9.803h1.148V191.851z"/>
	</g>
	<g>
		<path fill="#2F2F2F" d="M627.516,65.415c-1.391,0-2.503-0.458-3.34-1.374c-0.836-0.916-1.254-2.108-1.254-3.575
			c0-1.577,0.426-2.834,1.278-3.773c0.852-0.939,2.012-1.408,3.479-1.408c1.354,0,2.443,0.456,3.271,1.367s1.241,2.103,1.241,3.575
			c0,1.6-0.424,2.864-1.271,3.794S628.938,65.415,627.516,65.415z M627.598,56.323c-1.03,0-1.866,0.372-2.509,1.114
			s-0.964,1.718-0.964,2.926s0.313,2.18,0.939,2.916c0.627,0.736,1.443,1.104,2.451,1.104c1.075,0,1.923-0.351,2.543-1.053
			c0.619-0.702,0.93-1.684,0.93-2.946c0-1.294-0.301-2.294-0.902-3.001S628.654,56.323,627.598,56.323z"/>
		<path fill="#2F2F2F" d="M635.105,64.239h-0.027v4.231h-1.121v-10.22h1.121v1.23h0.027c0.552-0.93,1.358-1.395,2.42-1.395
			c0.902,0,1.606,0.313,2.112,0.94s0.759,1.466,0.759,2.519c0,1.171-0.284,2.109-0.854,2.813c-0.569,0.704-1.349,1.056-2.338,1.056
			C636.298,65.415,635.598,65.023,635.105,64.239z M635.078,61.416v0.978c0,0.579,0.188,1.07,0.564,1.473s0.854,0.605,1.432,0.605
			c0.68,0,1.211-0.26,1.597-0.779c0.385-0.52,0.577-1.242,0.577-2.167c0-0.779-0.18-1.39-0.54-1.832
			c-0.359-0.442-0.848-0.663-1.463-0.663c-0.651,0-1.176,0.227-1.572,0.68S635.078,60.732,635.078,61.416z"/>
		<path fill="#2F2F2F" d="M645.34,65.183c-0.265,0.146-0.613,0.219-1.046,0.219c-1.227,0-1.839-0.684-1.839-2.051v-4.143h-1.203
			v-0.957h1.203v-1.709l1.121-0.362v2.071h1.764v0.957h-1.764v3.944c0,0.469,0.079,0.804,0.239,1.005
			c0.159,0.201,0.424,0.301,0.793,0.301c0.282,0,0.526-0.078,0.731-0.232V65.183z"/>
		<path fill="#2F2F2F" d="M647.295,56.474c-0.201,0-0.372-0.068-0.513-0.205c-0.142-0.137-0.212-0.31-0.212-0.52
			s0.07-0.384,0.212-0.523c0.141-0.139,0.312-0.208,0.513-0.208c0.205,0,0.379,0.069,0.522,0.208s0.216,0.313,0.216,0.523
			c0,0.201-0.072,0.372-0.216,0.513S647.5,56.474,647.295,56.474z M647.842,65.251h-1.121v-7h1.121V65.251z"/>
		<path fill="#2F2F2F" d="M659.899,65.251h-1.121v-4.02c0-0.775-0.12-1.335-0.359-1.682s-0.642-0.52-1.206-0.52
			c-0.479,0-0.886,0.219-1.221,0.656s-0.502,0.961-0.502,1.572v3.992h-1.121v-4.156c0-1.376-0.531-2.064-1.593-2.064
			c-0.492,0-0.898,0.206-1.217,0.619c-0.319,0.413-0.479,0.949-0.479,1.61v3.992h-1.121v-7h1.121v1.107h0.027
			c0.496-0.848,1.221-1.271,2.174-1.271c0.479,0,0.896,0.133,1.251,0.4s0.599,0.616,0.731,1.049c0.52-0.966,1.294-1.449,2.324-1.449
			c1.54,0,2.311,0.95,2.311,2.851V65.251z"/>
		<path fill="#2F2F2F" d="M662.487,56.474c-0.2,0-0.371-0.068-0.513-0.205c-0.141-0.137-0.212-0.31-0.212-0.52
			s0.071-0.384,0.212-0.523c0.142-0.139,0.312-0.208,0.513-0.208c0.205,0,0.38,0.069,0.523,0.208s0.215,0.313,0.215,0.523
			c0,0.201-0.071,0.372-0.215,0.513S662.692,56.474,662.487,56.474z M663.034,65.251h-1.121v-7h1.121V65.251z"/>
		<path fill="#2F2F2F" d="M670.145,58.572l-4.143,5.722h4.102v0.957h-5.749v-0.349l4.143-5.694h-3.753v-0.957h5.4V58.572z"/>
		<path fill="#2F2F2F" d="M676.697,65.251h-1.121v-1.094h-0.027c-0.488,0.838-1.206,1.258-2.153,1.258
			c-0.697,0-1.243-0.185-1.638-0.554c-0.394-0.369-0.591-0.859-0.591-1.47c0-1.308,0.77-2.069,2.311-2.283l2.099-0.294
			c0-1.189-0.481-1.784-1.442-1.784c-0.844,0-1.604,0.287-2.283,0.861v-1.148c0.688-0.438,1.48-0.656,2.379-0.656
			c1.645,0,2.468,0.871,2.468,2.611V65.251z M675.576,61.71l-1.688,0.232c-0.52,0.073-0.912,0.202-1.176,0.386
			c-0.265,0.185-0.396,0.512-0.396,0.981c0,0.342,0.122,0.621,0.365,0.837c0.244,0.216,0.568,0.325,0.975,0.325
			c0.556,0,1.015-0.195,1.377-0.584s0.544-0.883,0.544-1.48V61.71z"/>
		<path fill="#2F2F2F" d="M681.955,65.183c-0.264,0.146-0.612,0.219-1.046,0.219c-1.226,0-1.839-0.684-1.839-2.051v-4.143h-1.203
			v-0.957h1.203v-1.709l1.121-0.362v2.071h1.764v0.957h-1.764v3.944c0,0.469,0.08,0.804,0.239,1.005
			c0.16,0.201,0.424,0.301,0.793,0.301c0.283,0,0.526-0.078,0.731-0.232V65.183z"/>
		<path fill="#2F2F2F" d="M683.91,56.474c-0.2,0-0.371-0.068-0.513-0.205c-0.141-0.137-0.212-0.31-0.212-0.52
			s0.071-0.384,0.212-0.523c0.142-0.139,0.312-0.208,0.513-0.208c0.205,0,0.38,0.069,0.523,0.208s0.215,0.313,0.215,0.523
			c0,0.201-0.071,0.372-0.215,0.513S684.115,56.474,683.91,56.474z M684.457,65.251h-1.121v-7h1.121V65.251z"/>
		<path fill="#2F2F2F" d="M689.552,65.415c-1.034,0-1.86-0.327-2.478-0.981c-0.618-0.654-0.927-1.521-0.927-2.601
			c0-1.176,0.321-2.094,0.964-2.755s1.511-0.991,2.604-0.991c1.044,0,1.858,0.321,2.444,0.964c0.585,0.643,0.878,1.534,0.878,2.673
			c0,1.117-0.315,2.011-0.946,2.683C691.46,65.079,690.614,65.415,689.552,65.415z M689.634,59.03c-0.72,0-1.289,0.245-1.709,0.735
			c-0.419,0.49-0.629,1.166-0.629,2.027c0,0.83,0.212,1.483,0.636,1.962s0.991,0.718,1.702,0.718c0.725,0,1.282-0.235,1.672-0.704
			s0.584-1.137,0.584-2.003c0-0.875-0.194-1.549-0.584-2.023S690.358,59.03,689.634,59.03z"/>
		<path fill="#2F2F2F" d="M700.564,65.251h-1.121v-3.992c0-1.486-0.543-2.229-1.627-2.229c-0.561,0-1.024,0.211-1.392,0.632
			c-0.366,0.421-0.55,0.954-0.55,1.596v3.992h-1.121v-7h1.121v1.162h0.027c0.528-0.884,1.294-1.326,2.297-1.326
			c0.766,0,1.351,0.247,1.757,0.742c0.405,0.495,0.608,1.209,0.608,2.143V65.251z"/>
		<path fill="#2F2F2F" d="M706.088,64.998v-1.203c0.61,0.451,1.282,0.677,2.017,0.677c0.984,0,1.477-0.328,1.477-0.984
			c0-0.187-0.042-0.345-0.127-0.475c-0.084-0.13-0.198-0.245-0.342-0.345s-0.312-0.19-0.506-0.27
			c-0.193-0.08-0.402-0.163-0.625-0.25c-0.311-0.123-0.582-0.247-0.817-0.373c-0.234-0.125-0.431-0.267-0.588-0.424
			s-0.275-0.336-0.355-0.537c-0.079-0.201-0.119-0.435-0.119-0.704c0-0.328,0.075-0.619,0.226-0.872s0.351-0.465,0.602-0.636
			c0.25-0.171,0.536-0.3,0.857-0.386s0.653-0.13,0.995-0.13c0.605,0,1.148,0.105,1.627,0.314v1.135
			c-0.516-0.337-1.107-0.506-1.777-0.506c-0.21,0-0.399,0.024-0.567,0.072c-0.169,0.048-0.313,0.115-0.435,0.202
			c-0.12,0.086-0.214,0.19-0.28,0.311c-0.065,0.121-0.099,0.254-0.099,0.4c0,0.182,0.033,0.335,0.099,0.458
			c0.066,0.123,0.163,0.232,0.291,0.328c0.127,0.096,0.282,0.182,0.465,0.26c0.182,0.078,0.39,0.162,0.622,0.253
			c0.31,0.119,0.588,0.24,0.834,0.366s0.455,0.267,0.629,0.424c0.173,0.157,0.307,0.338,0.399,0.543
			c0.094,0.205,0.141,0.449,0.141,0.731c0,0.346-0.076,0.647-0.229,0.902c-0.152,0.255-0.356,0.467-0.611,0.636
			c-0.256,0.168-0.55,0.294-0.882,0.376c-0.333,0.082-0.682,0.123-1.046,0.123C707.24,65.415,706.616,65.276,706.088,64.998z"/>
		<path fill="#2F2F2F" d="M715.343,65.415c-1.035,0-1.86-0.327-2.479-0.981c-0.617-0.654-0.926-1.521-0.926-2.601
			c0-1.176,0.321-2.094,0.964-2.755s1.511-0.991,2.604-0.991c1.043,0,1.858,0.321,2.443,0.964c0.586,0.643,0.879,1.534,0.879,2.673
			c0,1.117-0.315,2.011-0.947,2.683C717.251,65.079,716.404,65.415,715.343,65.415z M715.425,59.03c-0.721,0-1.29,0.245-1.709,0.735
			c-0.42,0.49-0.629,1.166-0.629,2.027c0,0.83,0.212,1.483,0.636,1.962s0.991,0.718,1.702,0.718c0.725,0,1.281-0.235,1.671-0.704
			s0.585-1.137,0.585-2.003c0-0.875-0.195-1.549-0.585-2.023S716.149,59.03,715.425,59.03z"/>
		<path fill="#2F2F2F" d="M721.658,65.251h-1.121V54.888h1.121V65.251z"/>
		<path fill="#2F2F2F" d="M729.46,58.251l-2.789,7h-1.101l-2.652-7h1.23l1.777,5.086c0.133,0.374,0.215,0.7,0.246,0.978h0.027
			c0.046-0.351,0.119-0.667,0.219-0.95l1.859-5.113H729.46z"/>
		<path fill="#2F2F2F" d="M736.102,62.031h-4.942c0.019,0.779,0.229,1.381,0.629,1.805c0.401,0.424,0.953,0.636,1.654,0.636
			c0.789,0,1.514-0.26,2.174-0.779v1.053c-0.615,0.447-1.429,0.67-2.44,0.67c-0.988,0-1.766-0.318-2.331-0.954
			c-0.564-0.636-0.848-1.53-0.848-2.683c0-1.089,0.309-1.977,0.927-2.663c0.617-0.686,1.384-1.029,2.3-1.029
			s1.625,0.296,2.126,0.889c0.502,0.592,0.752,1.415,0.752,2.468V62.031z M734.953,61.081c-0.004-0.647-0.16-1.151-0.468-1.511
			s-0.735-0.54-1.282-0.54c-0.528,0-0.978,0.189-1.347,0.567s-0.597,0.873-0.684,1.483H734.953z"/>
		<path fill="#2F2F2F" d="M741.435,59.386c-0.195-0.15-0.479-0.226-0.848-0.226c-0.479,0-0.878,0.226-1.199,0.677
			s-0.482,1.066-0.482,1.846v3.568h-1.121v-7h1.121v1.442h0.027c0.16-0.492,0.403-0.876,0.731-1.152s0.695-0.414,1.101-0.414
			c0.292,0,0.516,0.032,0.67,0.096V59.386z"/>
		<path fill="#2F2F2F" d="M742.437,64.998v-1.203c0.61,0.451,1.282,0.677,2.017,0.677c0.984,0,1.477-0.328,1.477-0.984
			c0-0.187-0.042-0.345-0.127-0.475c-0.084-0.13-0.198-0.245-0.342-0.345s-0.312-0.19-0.506-0.27
			c-0.193-0.08-0.402-0.163-0.625-0.25c-0.311-0.123-0.582-0.247-0.817-0.373c-0.234-0.125-0.431-0.267-0.588-0.424
			s-0.275-0.336-0.355-0.537c-0.079-0.201-0.119-0.435-0.119-0.704c0-0.328,0.075-0.619,0.226-0.872s0.351-0.465,0.602-0.636
			c0.25-0.171,0.536-0.3,0.857-0.386s0.653-0.13,0.995-0.13c0.605,0,1.148,0.105,1.627,0.314v1.135
			c-0.516-0.337-1.107-0.506-1.777-0.506c-0.21,0-0.399,0.024-0.567,0.072c-0.169,0.048-0.313,0.115-0.435,0.202
			c-0.12,0.086-0.214,0.19-0.28,0.311c-0.065,0.121-0.099,0.254-0.099,0.4c0,0.182,0.033,0.335,0.099,0.458
			c0.066,0.123,0.163,0.232,0.291,0.328c0.127,0.096,0.282,0.182,0.465,0.26c0.182,0.078,0.39,0.162,0.622,0.253
			c0.31,0.119,0.588,0.24,0.834,0.366s0.455,0.267,0.629,0.424c0.173,0.157,0.307,0.338,0.399,0.543
			c0.094,0.205,0.141,0.449,0.141,0.731c0,0.346-0.076,0.647-0.229,0.902c-0.152,0.255-0.356,0.467-0.611,0.636
			c-0.256,0.168-0.55,0.294-0.882,0.376c-0.333,0.082-0.682,0.123-1.046,0.123C743.589,65.415,742.965,65.276,742.437,64.998z"/>
	</g>
	<g>
		<path fill="#2F2F2F" d="M630.837,131.415c-1.385,0-2.499-0.458-3.343-1.374c-0.834-0.916-1.251-2.108-1.251-3.575
			c0-1.582,0.427-2.839,1.278-3.773c0.857-0.939,2.017-1.408,3.479-1.408c1.35,0,2.438,0.456,3.268,1.367
			c0.83,0.912,1.244,2.103,1.244,3.575c0,1.6-0.424,2.864-1.271,3.794c-0.2,0.223-0.414,0.415-0.643,0.574l2.755,1.976h-2.085
			l-1.846-1.381C631.94,131.34,631.411,131.415,630.837,131.415z M630.919,122.323c-1.029,0-1.866,0.372-2.509,1.114
			s-0.964,1.718-0.964,2.926c0,1.203,0.312,2.176,0.937,2.919c0.629,0.734,1.447,1.101,2.454,1.101c1.076,0,1.924-0.351,2.543-1.053
			c0.62-0.702,0.93-1.684,0.93-2.946c0-1.299-0.301-2.299-0.902-3.001C632.806,122.676,631.977,122.323,630.919,122.323z"/>
		<path fill="#2F2F2F" d="M642.942,131.251h-1.121v-1.107h-0.027c-0.465,0.848-1.186,1.271-2.16,1.271
			c-1.668,0-2.502-0.994-2.502-2.98v-4.184h1.114v4.006c0,1.477,0.564,2.215,1.695,2.215c0.547,0,0.997-0.202,1.35-0.605
			c0.354-0.403,0.53-0.931,0.53-1.583v-4.033h1.121V131.251z"/>
		<path fill="#2F2F2F" d="M650.098,131.251h-1.121v-1.094h-0.027c-0.487,0.838-1.205,1.258-2.153,1.258
			c-0.697,0-1.243-0.185-1.637-0.554c-0.395-0.369-0.592-0.859-0.592-1.47c0-1.308,0.771-2.069,2.311-2.283l2.099-0.294
			c0-1.189-0.48-1.784-1.442-1.784c-0.843,0-1.604,0.287-2.283,0.861v-1.148c0.688-0.438,1.481-0.656,2.379-0.656
			c1.646,0,2.468,0.871,2.468,2.611V131.251z M648.977,127.71l-1.688,0.232c-0.52,0.073-0.911,0.202-1.176,0.386
			c-0.264,0.185-0.396,0.512-0.396,0.981c0,0.342,0.122,0.621,0.366,0.837c0.243,0.216,0.568,0.325,0.974,0.325
			c0.557,0,1.016-0.195,1.378-0.584s0.543-0.883,0.543-1.48V127.71z"/>
		<path fill="#2F2F2F" d="M657.93,131.251h-1.121v-3.992c0-1.486-0.542-2.229-1.627-2.229c-0.561,0-1.024,0.211-1.391,0.632
			c-0.367,0.421-0.551,0.954-0.551,1.596v3.992h-1.121v-7h1.121v1.162h0.027c0.529-0.884,1.295-1.326,2.297-1.326
			c0.766,0,1.352,0.247,1.757,0.742c0.406,0.495,0.608,1.209,0.608,2.143V131.251z"/>
		<path fill="#2F2F2F" d="M663.159,131.183c-0.265,0.146-0.613,0.219-1.046,0.219c-1.227,0-1.839-0.684-1.839-2.051v-4.143h-1.203
			v-0.957h1.203v-1.709l1.121-0.362v2.071h1.764v0.957h-1.764v3.944c0,0.469,0.079,0.804,0.239,1.005
			c0.159,0.201,0.424,0.301,0.793,0.301c0.282,0,0.526-0.078,0.731-0.232V131.183z"/>
		<path fill="#2F2F2F" d="M670.277,131.251h-1.121v-1.107h-0.027c-0.465,0.848-1.186,1.271-2.16,1.271
			c-1.668,0-2.502-0.994-2.502-2.98v-4.184h1.114v4.006c0,1.477,0.564,2.215,1.695,2.215c0.547,0,0.997-0.202,1.35-0.605
			c0.354-0.403,0.53-0.931,0.53-1.583v-4.033h1.121V131.251z"/>
		<path fill="#2F2F2F" d="M682.323,131.251h-1.121v-4.02c0-0.775-0.119-1.335-0.358-1.682s-0.642-0.52-1.207-0.52
			c-0.479,0-0.885,0.219-1.22,0.656s-0.503,0.961-0.503,1.572v3.992h-1.121v-4.156c0-1.376-0.53-2.064-1.593-2.064
			c-0.492,0-0.897,0.206-1.217,0.619c-0.318,0.413-0.479,0.949-0.479,1.61v3.992h-1.121v-7h1.121v1.107h0.027
			c0.497-0.848,1.222-1.271,2.174-1.271c0.479,0,0.896,0.133,1.251,0.4s0.6,0.616,0.731,1.049c0.52-0.966,1.295-1.449,2.324-1.449
			c1.541,0,2.311,0.95,2.311,2.851V131.251z"/>
		<path fill="#2F2F2F" d="M694.088,131.251h-1.121v-4.033c0-1.458-0.542-2.188-1.627-2.188c-0.547,0-1.007,0.211-1.381,0.632
			c-0.373,0.421-0.561,0.963-0.561,1.624v3.965h-1.121v-10.363h1.121v4.525h0.027c0.538-0.884,1.304-1.326,2.297-1.326
			c1.577,0,2.365,0.95,2.365,2.851V131.251z"/>
		<path fill="#2F2F2F" d="M701.119,131.251h-1.121v-1.094h-0.027c-0.488,0.838-1.206,1.258-2.153,1.258
			c-0.697,0-1.243-0.185-1.638-0.554c-0.394-0.369-0.591-0.859-0.591-1.47c0-1.308,0.77-2.069,2.311-2.283l2.099-0.294
			c0-1.189-0.481-1.784-1.442-1.784c-0.844,0-1.604,0.287-2.283,0.861v-1.148c0.688-0.438,1.48-0.656,2.379-0.656
			c1.645,0,2.468,0.871,2.468,2.611V131.251z M699.998,127.71l-1.688,0.232c-0.52,0.073-0.912,0.202-1.176,0.386
			c-0.265,0.185-0.396,0.512-0.396,0.981c0,0.342,0.122,0.621,0.365,0.837c0.244,0.216,0.568,0.325,0.975,0.325
			c0.556,0,1.015-0.195,1.377-0.584s0.544-0.883,0.544-1.48V127.71z"/>
		<path fill="#2F2F2F" d="M706.789,125.386c-0.195-0.15-0.479-0.226-0.848-0.226c-0.479,0-0.878,0.226-1.199,0.677
			s-0.482,1.066-0.482,1.846v3.568h-1.121v-7h1.121v1.442h0.027c0.16-0.492,0.403-0.876,0.731-1.152s0.695-0.414,1.101-0.414
			c0.292,0,0.516,0.032,0.67,0.096V125.386z"/>
		<path fill="#2F2F2F" d="M713.992,131.251h-1.121v-1.189h-0.027c-0.52,0.902-1.322,1.354-2.406,1.354
			c-0.88,0-1.583-0.313-2.109-0.94s-0.789-1.48-0.789-2.56c0-1.158,0.291-2.085,0.875-2.782c0.583-0.697,1.36-1.046,2.331-1.046
			c0.961,0,1.661,0.378,2.099,1.135h0.027v-4.334h1.121V131.251z M712.871,128.086v-1.032c0-0.565-0.188-1.043-0.561-1.436
			c-0.374-0.392-0.848-0.588-1.422-0.588c-0.684,0-1.222,0.25-1.613,0.752c-0.393,0.501-0.588,1.194-0.588,2.078
			c0,0.807,0.188,1.443,0.563,1.911s0.881,0.701,1.515,0.701c0.624,0,1.131-0.226,1.521-0.677S712.871,128.774,712.871,128.086z"/>
		<path fill="#2F2F2F" d="M725.068,124.251l-2.099,7h-1.162l-1.442-5.011c-0.055-0.191-0.091-0.408-0.109-0.649h-0.027
			c-0.014,0.164-0.062,0.376-0.144,0.636l-1.565,5.024h-1.121l-2.119-7h1.176l1.449,5.264c0.046,0.16,0.078,0.369,0.096,0.629h0.055
			c0.014-0.201,0.055-0.415,0.123-0.643l1.613-5.25h1.025l1.449,5.277c0.046,0.168,0.08,0.378,0.103,0.629h0.055
			c0.01-0.178,0.048-0.387,0.116-0.629l1.422-5.277H725.068z"/>
		<path fill="#2F2F2F" d="M731.242,131.251h-1.121v-1.094h-0.027c-0.487,0.838-1.205,1.258-2.153,1.258
			c-0.697,0-1.243-0.185-1.637-0.554c-0.395-0.369-0.592-0.859-0.592-1.47c0-1.308,0.771-2.069,2.311-2.283l2.099-0.294
			c0-1.189-0.48-1.784-1.442-1.784c-0.843,0-1.604,0.287-2.283,0.861v-1.148c0.688-0.438,1.481-0.656,2.379-0.656
			c1.646,0,2.468,0.871,2.468,2.611V131.251z M730.121,127.71l-1.688,0.232c-0.52,0.073-0.911,0.202-1.176,0.386
			c-0.264,0.185-0.396,0.512-0.396,0.981c0,0.342,0.122,0.621,0.366,0.837c0.243,0.216,0.568,0.325,0.974,0.325
			c0.557,0,1.016-0.195,1.378-0.584s0.543-0.883,0.543-1.48V127.71z"/>
		<path fill="#2F2F2F" d="M736.914,125.386c-0.196-0.15-0.479-0.226-0.848-0.226c-0.479,0-0.879,0.226-1.2,0.677
			s-0.481,1.066-0.481,1.846v3.568h-1.121v-7h1.121v1.442h0.027c0.159-0.492,0.403-0.876,0.731-1.152s0.694-0.414,1.101-0.414
			c0.291,0,0.515,0.032,0.67,0.096V125.386z"/>
		<path fill="#2F2F2F" d="M743.757,128.031h-4.942c0.018,0.779,0.228,1.381,0.629,1.805c0.4,0.424,0.952,0.636,1.654,0.636
			c0.788,0,1.513-0.26,2.174-0.779v1.053c-0.615,0.447-1.429,0.67-2.44,0.67c-0.989,0-1.767-0.318-2.331-0.954
			c-0.565-0.636-0.848-1.53-0.848-2.683c0-1.089,0.309-1.977,0.926-2.663c0.618-0.686,1.385-1.029,2.301-1.029
			s1.624,0.296,2.126,0.889c0.501,0.592,0.752,1.415,0.752,2.468V128.031z M742.608,127.081c-0.005-0.647-0.161-1.151-0.469-1.511
			s-0.734-0.54-1.281-0.54c-0.529,0-0.978,0.189-1.347,0.567s-0.598,0.873-0.684,1.483H742.608z"/>
	</g>
	<g>
		<path fill="#2F2F2F" d="M628.033,201.815c-1.386,0-2.5-0.458-3.343-1.374c-0.834-0.916-1.251-2.108-1.251-3.575
			c0-1.582,0.426-2.839,1.278-3.773c0.856-0.939,2.017-1.408,3.479-1.408c1.349,0,2.438,0.456,3.268,1.367
			c0.829,0.912,1.244,2.103,1.244,3.575c0,1.6-0.424,2.864-1.271,3.794c-0.201,0.223-0.415,0.415-0.643,0.574l2.755,1.976h-2.085
			l-1.846-1.381C629.136,201.74,628.607,201.815,628.033,201.815z M628.115,192.723c-1.03,0-1.866,0.372-2.509,1.114
			s-0.964,1.718-0.964,2.926c0,1.203,0.312,2.176,0.937,2.919c0.629,0.734,1.446,1.101,2.454,1.101c1.075,0,1.923-0.351,2.543-1.053
			c0.619-0.702,0.93-1.684,0.93-2.946c0-1.299-0.301-2.299-0.902-3.001C630.002,193.076,629.172,192.723,628.115,192.723z"/>
		<path fill="#2F2F2F" d="M640.138,201.651h-1.121v-1.107h-0.027c-0.465,0.848-1.185,1.271-2.16,1.271
			c-1.668,0-2.502-0.994-2.502-2.98v-4.184h1.114v4.006c0,1.477,0.565,2.215,1.695,2.215c0.547,0,0.997-0.202,1.351-0.605
			c0.353-0.403,0.529-0.931,0.529-1.583v-4.033h1.121V201.651z"/>
		<path fill="#2F2F2F" d="M647.294,201.651h-1.121v-1.094h-0.027c-0.488,0.838-1.206,1.258-2.153,1.258
			c-0.697,0-1.243-0.185-1.638-0.554c-0.394-0.369-0.591-0.859-0.591-1.47c0-1.308,0.77-2.069,2.311-2.283l2.099-0.294
			c0-1.189-0.481-1.784-1.442-1.784c-0.844,0-1.604,0.287-2.283,0.861v-1.148c0.688-0.438,1.48-0.656,2.379-0.656
			c1.645,0,2.468,0.871,2.468,2.611V201.651z M646.173,198.11l-1.688,0.232c-0.52,0.073-0.912,0.202-1.176,0.386
			c-0.265,0.185-0.396,0.512-0.396,0.981c0,0.342,0.122,0.621,0.365,0.837c0.244,0.216,0.568,0.325,0.975,0.325
			c0.556,0,1.015-0.195,1.377-0.584s0.544-0.883,0.544-1.48V198.11z"/>
		<path fill="#2F2F2F" d="M655.126,201.651h-1.121v-3.992c0-1.486-0.543-2.229-1.627-2.229c-0.561,0-1.024,0.211-1.392,0.632
			c-0.366,0.421-0.55,0.954-0.55,1.596v3.992h-1.121v-7h1.121v1.162h0.027c0.528-0.884,1.294-1.326,2.297-1.326
			c0.766,0,1.351,0.247,1.757,0.742c0.405,0.495,0.608,1.209,0.608,2.143V201.651z"/>
		<path fill="#2F2F2F" d="M660.354,201.583c-0.264,0.146-0.612,0.219-1.046,0.219c-1.226,0-1.839-0.684-1.839-2.051v-4.143h-1.203
			v-0.957h1.203v-1.709l1.121-0.362v2.071h1.764v0.957h-1.764v3.944c0,0.469,0.08,0.804,0.239,1.005
			c0.16,0.201,0.424,0.301,0.793,0.301c0.283,0,0.526-0.078,0.731-0.232V201.583z"/>
		<path fill="#2F2F2F" d="M667.473,201.651h-1.121v-1.107h-0.027c-0.465,0.848-1.185,1.271-2.16,1.271
			c-1.668,0-2.502-0.994-2.502-2.98v-4.184h1.114v4.006c0,1.477,0.565,2.215,1.695,2.215c0.547,0,0.997-0.202,1.351-0.605
			c0.353-0.403,0.529-0.931,0.529-1.583v-4.033h1.121V201.651z"/>
		<path fill="#2F2F2F" d="M679.52,201.651h-1.121v-4.02c0-0.775-0.12-1.335-0.359-1.682s-0.642-0.52-1.206-0.52
			c-0.479,0-0.886,0.219-1.221,0.656s-0.502,0.961-0.502,1.572v3.992h-1.121v-4.156c0-1.376-0.531-2.064-1.593-2.064
			c-0.492,0-0.898,0.206-1.217,0.619c-0.319,0.413-0.479,0.949-0.479,1.61v3.992h-1.121v-7h1.121v1.107h0.027
			c0.496-0.848,1.221-1.271,2.174-1.271c0.479,0,0.896,0.133,1.251,0.4s0.599,0.616,0.731,1.049c0.52-0.966,1.294-1.449,2.324-1.449
			c1.54,0,2.311,0.95,2.311,2.851V201.651z"/>
		<path fill="#2F2F2F" d="M685.05,201.398v-1.203c0.61,0.451,1.282,0.677,2.017,0.677c0.984,0,1.477-0.328,1.477-0.984
			c0-0.187-0.042-0.345-0.127-0.475c-0.084-0.13-0.198-0.245-0.342-0.345s-0.312-0.19-0.506-0.27
			c-0.193-0.08-0.402-0.163-0.625-0.25c-0.311-0.123-0.582-0.247-0.817-0.373c-0.234-0.125-0.431-0.267-0.588-0.424
			s-0.275-0.336-0.355-0.537c-0.079-0.201-0.119-0.435-0.119-0.704c0-0.328,0.075-0.619,0.226-0.872s0.351-0.465,0.602-0.636
			c0.25-0.171,0.536-0.3,0.857-0.386s0.653-0.13,0.995-0.13c0.605,0,1.148,0.105,1.627,0.314v1.135
			c-0.516-0.337-1.107-0.506-1.777-0.506c-0.21,0-0.399,0.024-0.567,0.072c-0.169,0.048-0.313,0.115-0.435,0.202
			c-0.12,0.086-0.214,0.19-0.28,0.311c-0.065,0.121-0.099,0.254-0.099,0.4c0,0.182,0.033,0.335,0.099,0.458
			c0.066,0.123,0.163,0.232,0.291,0.328c0.127,0.096,0.282,0.182,0.465,0.26c0.182,0.078,0.39,0.162,0.622,0.253
			c0.31,0.119,0.588,0.24,0.834,0.366s0.455,0.267,0.629,0.424c0.173,0.157,0.307,0.338,0.399,0.543
			c0.094,0.205,0.141,0.449,0.141,0.731c0,0.346-0.076,0.647-0.229,0.902c-0.152,0.255-0.356,0.467-0.611,0.636
			c-0.256,0.168-0.55,0.294-0.882,0.376c-0.333,0.082-0.682,0.123-1.046,0.123C686.202,201.815,685.578,201.676,685.05,201.398z"/>
		<path fill="#2F2F2F" d="M691.841,192.874c-0.2,0-0.371-0.068-0.513-0.205c-0.141-0.137-0.212-0.31-0.212-0.52
			s0.071-0.384,0.212-0.523c0.142-0.139,0.312-0.208,0.513-0.208c0.205,0,0.38,0.069,0.523,0.208s0.215,0.313,0.215,0.523
			c0,0.201-0.071,0.372-0.215,0.513S692.046,192.874,691.841,192.874z M692.388,201.651h-1.121v-7h1.121V201.651z"/>
		<path fill="#2F2F2F" d="M704.45,201.651h-1.121v-4.02c0-0.775-0.12-1.335-0.359-1.682s-0.642-0.52-1.206-0.52
			c-0.479,0-0.886,0.219-1.221,0.656s-0.502,0.961-0.502,1.572v3.992h-1.121v-4.156c0-1.376-0.531-2.064-1.593-2.064
			c-0.492,0-0.898,0.206-1.217,0.619c-0.319,0.413-0.479,0.949-0.479,1.61v3.992h-1.121v-7h1.121v1.107h0.027
			c0.496-0.848,1.221-1.271,2.174-1.271c0.479,0,0.896,0.133,1.251,0.4s0.599,0.616,0.731,1.049c0.52-0.966,1.294-1.449,2.324-1.449
			c1.54,0,2.311,0.95,2.311,2.851V201.651z"/>
		<path fill="#2F2F2F" d="M712.168,201.651h-1.121v-1.107h-0.027c-0.465,0.848-1.186,1.271-2.16,1.271
			c-1.668,0-2.502-0.994-2.502-2.98v-4.184h1.114v4.006c0,1.477,0.564,2.215,1.695,2.215c0.547,0,0.997-0.202,1.35-0.605
			c0.354-0.403,0.53-0.931,0.53-1.583v-4.033h1.121V201.651z"/>
		<path fill="#2F2F2F" d="M715.395,201.651h-1.121v-10.363h1.121V201.651z"/>
		<path fill="#2F2F2F" d="M722.549,201.651h-1.121v-1.094H721.4c-0.487,0.838-1.205,1.258-2.153,1.258
			c-0.697,0-1.243-0.185-1.637-0.554c-0.395-0.369-0.592-0.859-0.592-1.47c0-1.308,0.771-2.069,2.311-2.283l2.099-0.294
			c0-1.189-0.48-1.784-1.442-1.784c-0.843,0-1.604,0.287-2.283,0.861v-1.148c0.688-0.438,1.481-0.656,2.379-0.656
			c1.646,0,2.468,0.871,2.468,2.611V201.651z M721.428,198.11l-1.688,0.232c-0.52,0.073-0.911,0.202-1.176,0.386
			c-0.264,0.185-0.396,0.512-0.396,0.981c0,0.342,0.122,0.621,0.366,0.837c0.243,0.216,0.568,0.325,0.974,0.325
			c0.557,0,1.016-0.195,1.378-0.584s0.543-0.883,0.543-1.48V198.11z"/>
		<path fill="#2F2F2F" d="M727.808,201.583c-0.264,0.146-0.612,0.219-1.046,0.219c-1.226,0-1.839-0.684-1.839-2.051v-4.143h-1.203
			v-0.957h1.203v-1.709l1.121-0.362v2.071h1.764v0.957h-1.764v3.944c0,0.469,0.08,0.804,0.239,1.005
			c0.16,0.201,0.424,0.301,0.793,0.301c0.283,0,0.526-0.078,0.731-0.232V201.583z"/>
		<path fill="#2F2F2F" d="M732.065,201.815c-1.035,0-1.86-0.327-2.479-0.981c-0.617-0.654-0.926-1.521-0.926-2.601
			c0-1.176,0.321-2.094,0.964-2.755s1.511-0.991,2.604-0.991c1.043,0,1.858,0.321,2.443,0.964c0.586,0.643,0.879,1.534,0.879,2.673
			c0,1.117-0.315,2.011-0.947,2.683C733.974,201.479,733.127,201.815,732.065,201.815z M732.147,195.43
			c-0.721,0-1.29,0.245-1.709,0.735c-0.42,0.49-0.629,1.166-0.629,2.027c0,0.83,0.212,1.483,0.636,1.962s0.991,0.718,1.702,0.718
			c0.725,0,1.281-0.235,1.671-0.704s0.585-1.137,0.585-2.003c0-0.875-0.195-1.549-0.585-2.023S732.872,195.43,732.147,195.43z"/>
		<path fill="#2F2F2F" d="M740.917,195.786c-0.195-0.15-0.479-0.226-0.848-0.226c-0.479,0-0.878,0.226-1.199,0.677
			s-0.482,1.066-0.482,1.846v3.568h-1.121v-7h1.121v1.442h0.027c0.16-0.492,0.403-0.876,0.731-1.152s0.695-0.414,1.101-0.414
			c0.292,0,0.516,0.032,0.67,0.096V195.786z"/>
		<path fill="#2F2F2F" d="M741.919,201.398v-1.203c0.611,0.451,1.283,0.677,2.017,0.677c0.984,0,1.477-0.328,1.477-0.984
			c0-0.187-0.042-0.345-0.126-0.475c-0.085-0.13-0.198-0.245-0.342-0.345s-0.312-0.19-0.506-0.27
			c-0.194-0.08-0.402-0.163-0.626-0.25c-0.31-0.123-0.582-0.247-0.816-0.373c-0.235-0.125-0.431-0.267-0.588-0.424
			s-0.276-0.336-0.355-0.537c-0.08-0.201-0.12-0.435-0.12-0.704c0-0.328,0.075-0.619,0.226-0.872s0.352-0.465,0.602-0.636
			c0.251-0.171,0.537-0.3,0.858-0.386s0.652-0.13,0.994-0.13c0.606,0,1.148,0.105,1.627,0.314v1.135
			c-0.515-0.337-1.107-0.506-1.777-0.506c-0.209,0-0.398,0.024-0.567,0.072c-0.168,0.048-0.313,0.115-0.434,0.202
			c-0.121,0.086-0.215,0.19-0.28,0.311c-0.066,0.121-0.1,0.254-0.1,0.4c0,0.182,0.033,0.335,0.1,0.458
			c0.065,0.123,0.163,0.232,0.29,0.328c0.128,0.096,0.283,0.182,0.465,0.26c0.183,0.078,0.39,0.162,0.622,0.253
			c0.311,0.119,0.588,0.24,0.834,0.366s0.456,0.267,0.629,0.424c0.174,0.157,0.307,0.338,0.4,0.543
			c0.093,0.205,0.14,0.449,0.14,0.731c0,0.346-0.076,0.647-0.229,0.902c-0.153,0.255-0.356,0.467-0.612,0.636
			c-0.255,0.168-0.549,0.294-0.882,0.376c-0.332,0.082-0.681,0.123-1.046,0.123C743.072,201.815,742.448,201.676,741.919,201.398z"
			/>
	</g>
	<g>
		<path fill="#2F2F2F" d="M465.012,113.815c-1.386,0-2.5-0.458-3.343-1.374c-0.834-0.916-1.251-2.108-1.251-3.575
			c0-1.582,0.426-2.839,1.278-3.773c0.856-0.939,2.017-1.408,3.479-1.408c1.349,0,2.438,0.456,3.268,1.367
			c0.829,0.912,1.244,2.103,1.244,3.575c0,1.6-0.424,2.864-1.271,3.794c-0.201,0.223-0.415,0.415-0.643,0.574l2.755,1.976h-2.085
			l-1.846-1.381C466.114,113.74,465.586,113.815,465.012,113.815z M465.094,104.723c-1.03,0-1.866,0.372-2.509,1.114
			s-0.964,1.718-0.964,2.926c0,1.203,0.312,2.176,0.937,2.919c0.629,0.734,1.446,1.101,2.454,1.101c1.075,0,1.923-0.351,2.543-1.053
			c0.619-0.702,0.93-1.684,0.93-2.946c0-1.299-0.301-2.299-0.902-3.001C466.98,105.076,466.15,104.723,465.094,104.723z"/>
		<path fill="#2F2F2F" d="M478.444,106.596l-0.157,0.725h-1.784l-0.431,2.051h1.921l-0.185,0.725h-1.88l-0.602,2.714h-0.861
			l0.588-2.714h-1.709l-0.574,2.714h-0.854l0.574-2.714h-1.791l0.137-0.725h1.812l0.417-2.051h-1.894l0.144-0.725h1.894l0.574-2.748
			h0.861l-0.574,2.748h1.723l0.588-2.748h0.841l-0.574,2.748H478.444z M475.655,107.321h-1.723l-0.451,2.051h1.736L475.655,107.321z
			"/>
		<path fill="#2F2F2F" d="M457.146,134.815c-1.386,0-2.5-0.458-3.343-1.374c-0.834-0.916-1.251-2.108-1.251-3.575
			c0-1.582,0.426-2.839,1.278-3.773c0.856-0.939,2.017-1.408,3.479-1.408c1.349,0,2.438,0.456,3.268,1.367
			c0.829,0.912,1.244,2.103,1.244,3.575c0,1.6-0.424,2.864-1.271,3.794c-0.201,0.223-0.415,0.415-0.643,0.574l2.755,1.976h-2.085
			l-1.846-1.381C458.249,134.74,457.721,134.815,457.146,134.815z M457.229,125.723c-1.03,0-1.866,0.372-2.509,1.114
			s-0.964,1.718-0.964,2.926c0,1.203,0.312,2.176,0.937,2.919c0.629,0.734,1.446,1.101,2.454,1.101c1.075,0,1.923-0.351,2.543-1.053
			c0.619-0.702,0.93-1.684,0.93-2.946c0-1.299-0.301-2.299-0.902-3.001C459.115,126.076,458.285,125.723,457.229,125.723z"/>
		<path fill="#2F2F2F" d="M464.165,125.874c-0.2,0-0.371-0.068-0.513-0.205c-0.141-0.137-0.212-0.31-0.212-0.52
			s0.071-0.384,0.212-0.523c0.142-0.139,0.312-0.208,0.513-0.208c0.205,0,0.38,0.069,0.523,0.208s0.215,0.313,0.215,0.523
			c0,0.201-0.071,0.372-0.215,0.513S464.37,125.874,464.165,125.874z M464.712,134.651h-1.121v-7h1.121V134.651z"/>
		<path fill="#2F2F2F" d="M466.429,134.398v-1.203c0.611,0.451,1.283,0.677,2.017,0.677c0.984,0,1.477-0.328,1.477-0.984
			c0-0.187-0.042-0.345-0.126-0.475c-0.085-0.13-0.198-0.245-0.342-0.345s-0.312-0.19-0.506-0.27
			c-0.194-0.08-0.402-0.163-0.626-0.25c-0.31-0.123-0.582-0.247-0.816-0.373c-0.235-0.125-0.431-0.267-0.588-0.424
			s-0.276-0.336-0.355-0.537c-0.08-0.201-0.12-0.435-0.12-0.704c0-0.328,0.075-0.619,0.226-0.872s0.352-0.465,0.602-0.636
			c0.251-0.171,0.537-0.3,0.858-0.386s0.652-0.13,0.994-0.13c0.606,0,1.148,0.105,1.627,0.314v1.135
			c-0.515-0.337-1.107-0.506-1.777-0.506c-0.209,0-0.398,0.024-0.567,0.072c-0.168,0.048-0.313,0.115-0.434,0.202
			c-0.121,0.086-0.215,0.19-0.28,0.311c-0.066,0.121-0.1,0.254-0.1,0.4c0,0.182,0.033,0.335,0.1,0.458
			c0.065,0.123,0.163,0.232,0.29,0.328c0.128,0.096,0.283,0.182,0.465,0.26c0.183,0.078,0.39,0.162,0.622,0.253
			c0.311,0.119,0.588,0.24,0.834,0.366s0.456,0.267,0.629,0.424c0.174,0.157,0.307,0.338,0.4,0.543
			c0.093,0.205,0.14,0.449,0.14,0.731c0,0.346-0.076,0.647-0.229,0.902c-0.153,0.255-0.356,0.467-0.612,0.636
			c-0.255,0.168-0.549,0.294-0.882,0.376c-0.332,0.082-0.681,0.123-1.046,0.123C467.582,134.815,466.958,134.676,466.429,134.398z"
			/>
		<path fill="#2F2F2F" d="M478.465,134.651h-1.572l-3.09-3.363h-0.027v3.363h-1.121v-10.363h1.121v6.569h0.027l2.939-3.206h1.47
			l-3.247,3.377L478.465,134.651z"/>
		<path fill="#2F2F2F" d="M480.254,125.874c-0.201,0-0.372-0.068-0.513-0.205c-0.142-0.137-0.212-0.31-0.212-0.52
			s0.07-0.384,0.212-0.523c0.141-0.139,0.312-0.208,0.513-0.208c0.205,0,0.379,0.069,0.522,0.208s0.216,0.313,0.216,0.523
			c0,0.201-0.072,0.372-0.216,0.513S480.459,125.874,480.254,125.874z M480.801,134.651h-1.121v-7h1.121V134.651z"/>
		<path fill="#2F2F2F" d="M486.248,134.583c-0.264,0.146-0.612,0.219-1.046,0.219c-1.226,0-1.839-0.684-1.839-2.051v-4.143h-1.203
			v-0.957h1.203v-1.709l1.121-0.362v2.071h1.764v0.957h-1.764v3.944c0,0.469,0.08,0.804,0.239,1.005
			c0.16,0.201,0.424,0.301,0.793,0.301c0.283,0,0.526-0.078,0.731-0.232V134.583z"/>
		<path fill="#2F2F2F" d="M464.811,155.241c-0.725,0.383-1.627,0.574-2.707,0.574c-1.395,0-2.512-0.449-3.35-1.347
			c-0.839-0.898-1.258-2.076-1.258-3.534c0-1.568,0.472-2.834,1.415-3.801s2.14-1.449,3.589-1.449c0.93,0,1.699,0.134,2.311,0.403
			v1.224c-0.702-0.392-1.477-0.588-2.324-0.588c-1.126,0-2.038,0.376-2.738,1.128c-0.699,0.752-1.049,1.757-1.049,3.015
			c0,1.194,0.327,2.146,0.98,2.854c0.654,0.708,1.512,1.063,2.574,1.063c0.984,0,1.836-0.219,2.557-0.656V155.241z"/>
		<path fill="#2F2F2F" d="M467.015,146.874c-0.201,0-0.372-0.068-0.513-0.205c-0.142-0.137-0.212-0.31-0.212-0.52
			s0.07-0.384,0.212-0.523c0.141-0.139,0.312-0.208,0.513-0.208c0.205,0,0.379,0.069,0.522,0.208s0.216,0.313,0.216,0.523
			c0,0.201-0.072,0.372-0.216,0.513S467.22,146.874,467.015,146.874z M467.562,155.651h-1.121v-7h1.121V155.651z"/>
		<path fill="#2F2F2F" d="M473.33,149.786c-0.195-0.15-0.479-0.226-0.848-0.226c-0.479,0-0.878,0.226-1.199,0.677
			s-0.482,1.066-0.482,1.846v3.568h-1.121v-7h1.121v1.442h0.027c0.16-0.492,0.403-0.876,0.731-1.152s0.695-0.414,1.101-0.414
			c0.292,0,0.516,0.032,0.67,0.096V149.786z"/>
		<path fill="#2F2F2F" d="M480.533,158.871h-1.121v-4.423h-0.027c-0.488,0.912-1.285,1.367-2.393,1.367
			c-0.88,0-1.585-0.313-2.116-0.94c-0.53-0.626-0.796-1.48-0.796-2.56c0-1.162,0.291-2.091,0.875-2.786
			c0.583-0.695,1.367-1.042,2.352-1.042c0.957,0,1.649,0.378,2.078,1.135h0.027v-0.971h1.121V158.871z M479.412,152.5v-1.019
			c0-0.574-0.188-1.06-0.564-1.456s-0.854-0.595-1.432-0.595c-0.675,0-1.208,0.25-1.6,0.749c-0.393,0.499-0.588,1.202-0.588,2.109
			c0,0.807,0.188,1.439,0.567,1.897c0.378,0.458,0.865,0.687,1.463,0.687c0.656,0,1.179-0.225,1.568-0.673
			S479.412,153.183,479.412,152.5z"/>
	</g>
	<g>
	</g>
	<g>
	</g>
	<g>
	</g>
	<g>
	</g>
	<g>
	</g>
	<g>
	</g>
	<g>
	</g>
	<g>
	</g>
	<g>
	</g>
	<g>
	</g>
	<g>
	</g>
	<g>
	</g>
	<g>
	</g>
	<g>
	</g>
	<g>
	</g>
	<g>
	</g>
	<g>
	</g>
	<g>
	</g>
	<g>
	</g>
	<g>
	</g>
	<g>
	</g>
	<g>
	</g>
	<g>
	</g>
	<g>
	</g>
	<g>
	</g>
	<g>
	</g>
	<g>
	</g>
	<g>
	</g>
	<g>
	</g>
	<g>
	</g>
	<g>
	</g>
	<g>
	</g>
	<g>
	</g>
	<g>
	</g>
	<g>
	</g>
	<g>
	</g>
	<g>
	</g>
</g>
</svg>
