<?xml version="1.0" encoding="utf-8"?>
<!-- Generator: Adobe Illustrator 26.0.1, SVG Export Plug-In . SVG Version: 6.00 Build 0)  -->
<svg version="1.1" id="Layer_1" xmlns="http://www.w3.org/2000/svg" xmlns:xlink="http://www.w3.org/1999/xlink" x="0px" y="0px"
	 viewBox="0 0 204.13 37.91" style="enable-background:new 0 0 204.13 37.91;" xml:space="preserve">
<style type="text/css">
	.st0{fill:#D9D9D6;}
	.st1{fill:#FFFFFF;}
	.st2{fill:#698197;}
	.st3{fill:#010101;}
</style>
<g>
	<g>
		<g>
			<g>
				<path class="st2" d="M35.06,18.99c0,2.06-0.37,4.06-1.1,5.95h-2.32c0.6-13.14-16.42-18.87-23.92-8.11
					C6.5,12.76,7.83,8.17,10.96,5.38c0,0,0,0,0,0c1.14-1.04,2.5-1.84,3.95-2.33C24.93,0.12,35.22,8.73,35.06,18.99z"/>
			</g>
			<g>
				<path class="st2" d="M35.06,26.83v8.7H18.52c-0.21,0-0.4,0-0.59-0.02c-4.29-0.15-8.3-1.94-11.29-5.03
					c-6.48-6.3-5.98-17.92,0.71-23.67C5,10.54,4.75,15.46,6.69,19.4c2.15,4.47,6.82,7.43,11.83,7.42
					C18.52,26.83,35.06,26.83,35.06,26.83z"/>
			</g>
		</g>
	</g>
	<g>
		<g>
			<path class="st2" d="M114.52,16.51h4.97v8.5h1.96v-8.5h4.97v-1.96h-11.9V16.51z M108.88,22.64l-8.21-8.08h-2.25v10.46h1.96v-8.03
				l7.92,8.03l2.55,0V14.55h-1.96V22.64z M86.78,14.55l-5.34,10.46h2.19l0.79-1.57h7.34l0.79,1.57h2.2l-5.34-10.46H86.78z
				 M85.42,21.49l2.67-5.21l2.67,5.21H85.42z M61.7,23.44h2.15l0.04-0.12c0.53-1.46,0.54-2.96,0.02-4.46
				c-0.78-2.3-2.81-4.05-5.18-4.47c-0.4-0.07-0.81-0.11-1.23-0.11c-1.81,0-3.51,0.7-4.79,1.98c-1.28,1.28-1.98,2.98-1.98,4.8
				c0,3.67,2.98,6.7,6.65,6.77l0.3,0.01l6.43,0h0.17v-1.96h-6.8c-1.95,0-3.72-1.16-4.41-2.88c-0.64-1.59-0.49-3.28,0.44-4.64
				c0.9-1.33,2.39-2.13,3.99-2.13c0.35,0,0.7,0.04,1.07,0.11c1.76,0.38,3.18,1.77,3.62,3.55c0.28,1.13,0.15,2.27-0.36,3.28
				L61.7,23.44z M77.22,19.61c0,2.03-1.65,3.68-3.68,3.68c-2.03,0-3.68-1.65-3.68-3.68v-5.06h-1.96v5.06c0,3.11,2.53,5.64,5.63,5.64
				c3.11,0,5.63-2.53,5.63-5.64v-5.06h-1.96V19.61z M198.54,14.55l-4.91,8.94l-4.96-8.94h-3.03v10.46h1.96v-8.36l4.63,8.36h2.8
				l4.57-8.32v8.32h1.96V14.55H198.54z M179.41,19.61c0,2.03-1.65,3.68-3.68,3.68c-2.03,0-3.68-1.65-3.68-3.68v-5.06h-1.96v5.06
				c0,3.11,2.53,5.64,5.64,5.64c3.11,0,5.63-2.53,5.63-5.64v-5.06h-1.96V19.61z M148.25,22.64l-8.21-8.08h-2.25v10.46h1.96v-8.03
				l7.92,8.03l2.55,0V14.55h-1.96V22.64z M163.9,19.61c0,2.03-1.65,3.68-3.68,3.68c-2.03,0-3.68-1.65-3.68-3.68v-5.06h-1.96v5.06
				c0,3.11,2.53,5.64,5.63,5.64c3.11,0,5.64-2.53,5.64-5.64v-5.06h-1.96V19.61z M130.63,25.01h1.96V14.55h-1.96V25.01z"/>
		</g>
	</g>
</g>
</svg>
